<?xml version="1.0" encoding="UTF-8"?>
<svg xmlns="http://www.w3.org/2000/svg" version="1.1" xmlns:xlink="http://www.w3.org/1999/xlink" viewBox="0 0 1418.4 1418.4">
  <defs>
    <style>
      .cls-1 {
        stroke: #f5ae28;
        stroke-width: 40px;
      }

      .cls-1, .cls-2, .cls-3, .cls-4, .cls-5, .cls-6 {
        stroke-miterlimit: 10;
      }

      .cls-1, .cls-5 {
        fill: none;
      }

      .cls-7, .cls-8, .cls-9 {
        stroke-width: 0px;
      }

      .cls-7, .cls-9 {
        fill: #033957;
      }

      .cls-8 {
        fill: #000;
      }

      .cls-8, .cls-9, .cls-10, .cls-5 {
        display: none;
      }

      .cls-2 {
        fill: url(#Gold_Gadient-2);
      }

      .cls-2, .cls-3, .cls-4, .cls-5, .cls-6 {
        stroke: #000;
      }

      .cls-2, .cls-3, .cls-5, .cls-6 {
        stroke-width: .8px;
      }

      .cls-3 {
        fill: url(#Gold_Gadient);
      }

      .cls-4 {
        fill: url(#Gold_Gadient-3);
        stroke-width: .5px;
      }

      .cls-6 {
        fill: #6a89a8;
      }
    </style>
    <linearGradient id="Gold_Gadient" data-name="Gold Gadient" x1=".4" y1="709.2" x2="1418" y2="709.2" gradientUnits="userSpaceOnUse">
      <stop offset="0" stop-color="#f5ae28"/>
      <stop offset=".5" stop-color="#e6d58d"/>
      <stop offset="1" stop-color="#f5ae28"/>
    </linearGradient>
    <linearGradient id="Gold_Gadient-2" data-name="Gold Gadient" x1="323.7" y1="607.8" x2="1094.7" y2="607.8" xlink:href="#Gold_Gadient"/>
    <linearGradient id="Gold_Gadient-3" data-name="Gold Gadient" x1="568.1" y1="895.2" x2="854.2" y2="895.2" xlink:href="#Gold_Gadient"/>
  </defs>
  <g id="Layer_1" data-name="Layer 1">
    <g id="Pineappole_House" data-name="Pineappole House">
      <g id="circle">
        <circle id="CVircle_Gold" data-name="CVircle Gold" class="cls-3" cx="709.2" cy="709.2" r="708.8"/>
        <circle id="Circle_Black" data-name="Circle Black" class="cls-1" cx="709.2" cy="708.7" r="686.1"/>
        <circle id="Cercle_White" data-name="Cercle White" class="cls-6" cx="709.2" cy="711.6" r="677.3"/>
      </g>
      <path id="House" class="cls-2" d="M323.7,746.8c0-104,0-208,0-311.9,0-3.5.8-5.7,3.8-7.8,37.8-27.3,75.4-54.8,113.1-82.2,40.7-29.6,81.4-59.1,122.2-88.6,47.5-34.5,95.1-68.9,142.6-103.5,3.1-2.3,5.1-2.2,8.1,0,41.2,30.1,82.6,60.1,123.9,90.1,50.7,36.8,101.4,73.6,152.2,110.3,33.3,24.2,66.6,48.5,100,72.5,4,2.9,5.3,5.9,5.3,10.7-.1,167-.1,333.9-.1,500.9,0,40.5,0,81,.1,121.5,0,4.7-1.3,5.7-5.8,5.7-71-.2-142-.2-213-.2-3.4,0-6-.9-8.4-3.3-8.6-8.6-17.3-17.1-26-25.5-1.6-1.6-2.1-2.7-.4-4.8,5.8-7.1,11.3-14.4,16.8-21.7,1.5-1.9,2.7-2.5,4.7-.5,5.9,5.8,12.4,11,18.1,17.1,3.9,4.3,8.5,7,15,7,53.7-.3,107.3-.3,161-.2,4.5,0,5.9-1.1,5.9-5.8-.1-191.6-.1-383.3,0-574.9,0-4.2-1.5-6.5-4.7-8.8-44.4-32.2-88.8-64.6-133.2-96.9-33.7-24.6-67.3-49.3-101.1-73.9-33.1-24.1-66.3-48.1-99.4-72.2-4-2.9-8.2-5.4-11.9-8.8-1.8-1.6-4-1.6-6.3.1-18.9,13.9-37.8,27.7-56.8,41.6-21.4,15.6-42.7,31.1-64.1,46.7-56.3,41-112.5,82-168.8,123-19,13.8-38,27.7-57.1,41.4-2.6,1.9-3.5,3.8-3.5,7,0,191.8,0,383.6,0,575.4,0,4.6.9,6.2,5.9,6.2,55-.2,110,0,165,0,2.7,0,4.7-.7,6.7-2.6,4.4-4.2,18.2-17.2,22.6-21.4,2.2-2.1,3.5-2.3,5.5.3,6.3,8.1,12.8,16.2,19.5,24.1,1.9,2.3,1.7,3.5-.5,5.2-6.6,5.1-21.2,20.3-28,25-1.9,1.3-3.5,1.5-5.4,1.5-73,0-146,0-219,.2-4,0-4.5-1.4-4.5-4.8.1-52.7,0-105.3,0-158,0-51.7,0-103.3,0-155Z"/>
      <path id="Pinapple_Leaves" data-name="Pinapple Leaves" class="cls-7" d="M708.2,348.3c-4.4,12.9-7.1,26.3-10,39.6-4.6,21.8-7.1,44-8.1,66.2-.9,18.1-1.5,36.2-.7,54.3.7,15.8,2.3,31.5,2.8,47.3.3,9.3,1.7,18.5,3.1,27.7,2,13,4.5,25.9,6.7,38.8,1.3,7.9,1.9,8.2,9.7,6,5.5-1.6,8.2-4.4,9.6-10.3,2-8.5,2.5-17.1,4.1-25.6,1.9-10.1,2.9-20.4,3.6-30.6.9-12.9,1.3-25.9,2.3-38.8,1.5-20.7.2-41.2-.7-61.8-.8-19.6-3.4-39-6.1-58.4-1.9-13.5-3.8-26.9-6.8-40.2-1.5-6.7-.9-14.1-5.6-20.4-1.8,2-2.9,4-3.7,6.2ZM500.4,461.8c-.4,1.3,1,1.4,1.9,1.8,23.4,10.1,42.5,26.3,60.2,44.2,15.7,15.8,29.5,33.1,42.6,51.2,14.1,19.5,27.1,39.8,39.3,60.5,6.2,10.4,11.7,21.2,17.7,31.8,2.6,4.5,3.8,4.5,6.6.2,3.7-5.7,7.2-11.5,10.8-17.3,1.3-2.1,1.6-4.2.8-6.6-3.6-10.2-6.6-20.6-10.7-30.5-9.5-23.3-21.2-45.4-36.6-65.3-13.4-17.3-29.1-32.1-47.9-43.4-12.3-7.4-25.5-12.8-38.9-17.7-13.9-5-28.4-6.8-42.4-9.8-1.4.2-2.9-.4-3.3,1.1ZM915.1,461c-16.4,3-32.5,7-48.1,12.7-34.5,12.4-60.8,35.7-82.6,64.4-6.2,8.1-11,17.3-15.8,26.4-9.6,18.2-17.4,37.2-24.3,56.6-2.3,6.4-2.5,11.9,2,17.5,3.7,4.6,6.5,9.9,9.7,15,1.3,2,2.4,2.2,3.6,0,4.2-7.5,7.8-15.3,11.8-22.9,3.9-7.5,7.9-14.9,12.3-22,9-14.7,17.9-29.4,28-43.3,11.4-15.9,23.8-30.9,36.7-45.6,10.5-12,22.3-22.6,35.1-32.2,10.3-7.8,20.5-15.6,32.4-20.9,3.1-1.4,6.3-2.6,9.8-5.7-4.3,0-7.5-.5-10.5,0ZM662.6,530c0-1.3-.2-2.7-.4-4-3.4-19.1-7.1-38.2-6.7-57.8,0-3.7-.4-7.7-3-10.3-6.5-6.4-13-12.8-20-18.5-12.4-10.1-26.2-18.2-40.8-24.9-5.4-2.5-10.8-5-16.8-5.7-1-.1-2.2-.2-2.5,1-.3.9.6,1.4,1.2,2,3,2.9,5.9,5.8,9,8.6,12.9,11.8,23.4,25.7,34.4,39.2,4.8,5.8,9.5,11.9,13.1,18.6,4.4,8.3,9.2,16.5,14,24.6,5.7,9.7,10.9,19.7,18,30,.4-1.7.7-2.3.6-2.9ZM761.3,530.2c10.2-15,18.2-31.3,27.3-47,9.6-16.5,21.5-31.3,34.3-45.5,7.7-8.5,15.5-16.8,23.8-24.7,1-1,3-2.1,2.2-3.5-.9-1.7-3.1-.8-4.5-.4-11.2,3.3-21.6,8.6-31.7,14.2-14.2,8-27,18.1-38.5,29.7-5.2,5.3-8.9,10.5-8.4,18.7.9,12.6-1.6,25.1-3.5,37.6-1.1,7.4-3,14.8-3.1,22.3,1.5.1,1.7-.8,2.1-1.5ZM713.7,699.8c9.7-7.8,19.6-15.2,28.7-23.6,1.7-1.6,1.4-3.4-.2-4.8-9.9-8.4-18.3-18.3-27.7-27.2-2.1-2-4.2-1.8-6,.3-7.6,8.5-15.5,16.7-23.7,24.6-5.1,5-4.8,6.7,1.1,11.1,7.7,5.7,15,12,22,18.6,1,1,2,1.7,3.8,1.7.4-.1,1.3-.2,1.9-.7ZM540.9,612.5c19.5-.4,38.1,3.7,56.4,10.5,7.5,2.8,13.9,7.6,21.6,9.7,1.1.3,2.2,2.2,3.5.6.9-1.1.2-2.6-.2-3.8-2.6-6.9-6-13.4-10.6-19.1-8.7-10.8-19.5-17.5-33.9-18-12.4-.4-23.5,3.5-33.9,9.3-4.7,2.6-10.8,3.9-13.4,10.7,4,0,7.3,0,10.6,0ZM891.6,613.6c-7.2-8.2-24.9-17.4-37.5-19.9-10.4-2.1-20.5-1.5-30.1,3.2-8.5,4.1-14.4,11.2-19.6,18.6-3.6,5.1-6.7,11-8.1,19.2,30.3-15.8,61.1-24.7,95.3-21.1Z"/>
      <path id="Pinapple_Body" data-name="Pinapple Body" class="cls-4" d="M758,843.5c4.3,9.1,11.5,16.2,17.5,24.2,3.9,5.1,8.3,10,13.4,14.1,1.6,1.3,2.3,2.5,1.2,4.7-7.3,13.5-15.1,26.6-26.1,37.5-.2.2-.5.5-.7.7-6.2,5.7-7.4,5.7-13.1-.8-9.2-10.6-16.4-22.6-23.3-34.7-.8-1.4-1.6-2.8,0-4.4,11.7-12.2,20.4-26.6,29.9-40.4.2-.2.5-.3,1.3-.8ZM710.6,778.3c-12.7,14.8-24.4,30.3-36.2,45.8-1.3,1.8-1.3,3.1,0,4.8,10.5,13.3,21,26.6,33.1,38.6,1.8,1.8,3,1.8,4.8-.2,12.5-13.9,23.4-29,33.9-44.3.9-1.3,1.5-2.5.2-4-11.1-13.1-20.2-27.7-29-42.3-.5-.8-.9-1.8-2.2-2-1.8.7-3.3,2.1-4.5,3.6ZM655.5,925.4c-2-.3-3.2-1.8-4.5-3.1-6-5.9-10.3-13-14.7-20.1-5.1-8.4-9.4-17.2-13.7-26.1-1.2-2.4-1.3-4,1.1-5.9,10.7-8.8,20.6-18.3,29.7-28.8,2.3-2.7,3.5-2.4,5.5.3,9.3,12.3,18.8,24.6,29.9,35.4,1.5,1.4,1.8,2.5.8,4.3-8.2,14.5-16.8,28.7-28.9,40.4-1.5,1.5-3.2,3-5.3,3.6ZM707.5,898.7c4,5.9,7.7,11.4,11.5,16.8,5.5,8,11.6,15.4,18.9,21.8,1.8,1.6,2.7,2.9,1.5,5.5-4.5,9.8-9.5,19.4-15.7,28.3-2.7,3.8-6,7-9.5,10.1-3.2,2.8-6.7,3.3-10.6,1.1-7.9-4.5-13.4-11.3-18.9-18.2-4.4-5.5-8-11.4-11.7-17.4-1-1.7-1.6-3,.3-4.7,13.9-11.6,23.6-26.5,33-41.7.2-.4.5-.8,1.1-1.6ZM805.5,902.7c13.7,10.5,24.8,23.3,37.7,34.2,1.1.9,3.4,1.6,1.7,3.8-8.2,10.6-17,20.7-30.5,24.6-10.5,3.1-20,0-28.3-6.8-3.7-3.1-6.6-6.9-9.8-10.5-2-2.3-1.5-3.6,0-5.9,8.7-12.3,17.3-24.7,27.4-36,1-1.1.5-2.6,1.7-3.4ZM601.7,894.6c2,0,1.9,1.6,2.4,2.5,7.1,13.7,14.6,27.2,24.9,38.8,5.7,6.4,5.7,6.5.2,13.1-5.2,6.2-10.6,12.4-16.5,18.1-2.7,2.6-4.7,2.6-7.7.6-13.5-9.2-21.7-22.2-27.8-36.9-.9-2.1-1.5-4.4-2.4-6.5-1.4-3.1-.8-4.9,2.2-6.9,8.3-5.6,14.9-13.2,22-20.2.9-.9,1.9-1.7,2.7-2.4ZM759.5,1024c-2-.1-3.7-1-5.4-2.2-9-6.2-16-14.4-22.9-22.7-1.5-1.8-1.1-3.1.1-4.8,7.2-10.4,14.6-20.6,22.2-30.6,2.8-3.7,5.1-3.3,8.1-.7,8.1,7.4,16.1,14.7,24.2,22.1,6,5.5,6.1,5.5,2.4,12.9-4.3,8.5-9.5,16.3-17.5,21.8-3.4,2.3-7.1,3.7-11.2,4.3ZM651,955.5c1.4.2,1.7,1.2,2.2,2.1,8.8,13.7,18.4,26.8,31.8,36.4,1.5,1.1,1.7,2.1.4,3.6-7.7,8.6-15,17.7-24.9,24-2.4,1.5-4.6,2.9-7.6.4-11.1-9.4-20.9-19.9-28.9-32.1-1.3-2-1.7-3.2.4-5,8.8-7.7,16.3-16.5,23.4-25.8,1-1.3,2.2-2.5,3.2-3.6ZM793,759.8c-.4.7-.7,1.3-1.1,1.8-9.2,11.7-17.9,24-28.9,34.2-2.4,2.3-3.9,2.7-6.4-.1-9.1-10.3-18.3-20.6-26.3-31.9-1.8-2.6-1.8-4,.8-6.1,6.5-5.1,13-10.3,20-14.9,8.4-5.6,15.2-4.6,24.4.7,6,3.5,10.9,8.7,15.5,13.9.7.7,1.2,1.5,1.9,2.3ZM803.4,860.7c-1.1-.8-2.1-1.4-2.9-2.2-10.4-10.1-19.2-21.5-27.4-33.5-1.2-1.7-1.2-2.9.1-4.4,6.1-7,12.3-14,18.3-21,2-2.3,3.5-2,5.7-.3,11.1,8.4,22.8,16.1,34.5,23.6,1.9,1.2,3.2,1.8,1.4,4.4-8.2,11.5-17.9,21.8-27.7,31.9-.5.6-1.3,1-1.9,1.5ZM642.4,754.8c-1.8-6.8,2.1-10.4,7.5-13,4.1-1.9,8.3-3.4,12.5-5.1,2.1-.9,3.8-.2,5.5,1.2,8.7,7.4,15.9,16.1,22.6,25.2,1.5,2,.7,3.2-.7,4.7-10.5,11.8-21.7,23-32.8,34.3-3,3.1-3.6,0-4.3-1.8-4.8-10.9-7.2-22.5-9-34.2-.6-3.8-.9-7.6-1.3-11.4ZM847.8,838c7.3,26.2,8.1,51.5,3.6,77.9-15.7-10-29.4-21.2-39.9-36.1-1.5-2.2,0-3.3,1.1-4.7,6.8-8,15-14.4,22-22.3,4.1-4.7,8.4-9.2,13.2-14.9ZM642.1,823.5c-.6.7-1.2,1.5-1.8,2.1-9.5,9.9-20.5,17.9-31.2,26.2-1.8,1.4-2.8,1.2-3.9-.6-6.9-12.2-11.4-25.4-16.1-38.5-.6-1.6.2-2.3,1.6-3,8.5-4.6,16.9-9.3,25.2-14,2.3-1.3,4.5-1.4,6.3.5,7.6,7.7,13.6,16.7,19.4,25.7.3.4.3.9.6,1.6ZM708.3,1004.2c8.6,11.4,16.7,22.4,27.6,30.9,1.7,1.3,1.3,2.4,0,3.6-5.9,6.1-11.7,12.3-19.2,16.5-6.3,3.5-13,2.6-19.2-.2-7.6-3.4-13.6-8.9-18.8-15.3-1-1.2-2-2.2,0-3.6,11.9-8.6,20.6-20.2,29.7-32ZM574.7,831.7c6.2,14.9,12.5,28.1,20.6,40.3,1.1,1.7,1.2,2.7-.4,4.2-8.3,7.9-16.8,15.6-26.8,23.1.6-22.8,2.8-44.6,6.6-67.6ZM844.2,971.1c-2.7,15.7-7.5,29.2-17,40.9-1.7,2.1-2.8,1.8-4-.4-4.2-7.6-8-15.3-9-24.1-.3-2.5.1-3.9,2.9-4.8,9-2.8,17.7-6.5,27.1-11.5ZM741.5,731.3c-9.6,4.2-17.1,10.7-26,14.8-1.4.6-2.4,1.6-4.1.6-8.3-4.8-17.2-8.7-24.2-15.7,11.6-8.8,40.1-8.6,54.2.2ZM601.8,1006.4c2,.1,3.1,1.2,4.4,1.9,8.3,5.1,14.7,12.3,21.8,18.9,1.2,1.1,2.4,2.3,3.7,3.4q5.9,5.1-.7,9.7c-7.4,5.1-7.3,5.1-14.4-1-7.4-6.3-13.8-13.4-19.6-21.1-1-1.3-2.5-2.7-1-4.4,2.1-2.5,3.3-5.7,5.9-7.3ZM811.8,1031.8c-.9,1-1.7,1.8-2.5,2.6-6.8,6.9-14.6,12.5-23.2,16.9-3.6,1.9-5.8,1.4-8.3-2-4.2-5.8-4.4-5.7,1.5-10.1,7.1-5.3,12.5-12.4,18.4-18.9,3-3.4,4.6-3.1,6.7.7,1.6,2.9,3.7,5.5,5.7,8.2.6.8,1.1,1.6,1.8,2.5ZM839.3,804.7c-11.4-6.1-22.7-12.3-34.1-18.4-1.7-.9-1.8-2.3-1.7-3.8.2-4.7,1.1-9.2,2-13.8.6-3.3,2.2-3.3,4.5-1.9,3.2,1.8,5.9,4.3,8.4,6.9,8.7,9,16.7,18.4,21.8,29.9-.3.4-.6.7-.9,1.1ZM589.7,789.9c7.3-17.4,21.9-27.1,36.4-37-2.1,6.8-5.9,13-6.6,20-.6,5.5-3.5,7.6-8,9.1-7.3,2.5-14.5,5.2-21.7,7.9ZM573.4,960.2c8.3,7,15.5,12.8,22.3,19.1,5.2,4.9,4.9,9.1-.3,14-7.8,7.5-9.4,7.2-13.8-2.9-4-9.2-5.7-18.9-8.3-30.1ZM736,1065.9c6.2-6.5,11.6-12,16.1-18.1,1.5-2,3.1-1.9,4.4.1,2.2,3.5,4.2,7.2,6.3,10.7,1.3,2.2.1,3.2-1.7,3.5-7.8,1.3-15.6,3.2-25.1,3.7ZM671,1064.6c-7-2-13.9-4.1-20.9-5.9-3.5-.9-3.6-2.4-1.9-5.3,4.2-7.3,4.1-7.4,10.5-1.8,4.5,3.9,9.2,7.6,12.3,13Z"/>
    </g>
    <path id="BRUCECARTA" class="cls-9" d="M1359,1393.1c-8.7-2.1-16.1-6.3-22.4-12.8-10.1-10.3-18.9-21.6-27-33.5-6.1-9-12.2-18.1-18.4-27.1-2.3-3.3-1.5-6.2,2.4-7.5,6.2-2,12.3-4.3,17.8-7.7,6.9-4.3,12.1-9.9,15.8-17.3,4.8-9.5,3.9-19.5,3.3-29.4-.6-9.3-3.9-18.1-10.7-25-7.4-7.5-16.5-12-26.7-14.7-14.6-3.8-29.6-4.4-44.5-4.5-22.8-.1-45.7.1-68.5-.3-8.6-.2-17.3-.9-25.9-.9-1.8,0-3.8-.4-4.8,1.7-2.3,5,1.7,10.9,7,11.3,16.9,1.5,19.4,3.8,19.5,19.4,0,22,0,44,0,66h0c0,22.8,0,45.7,0,68.5,0,7.8-2.6,11.5-9.4,13.5-2.8.8-5.9,1-8.9,1.2-13.2,1.1-24.1-1.4-28.9-17.8-1.3-4.3-3.1-8.4-4.6-12.6-5.6-16.1-11.9-32-17.3-48.2-6.9-20.4-14.4-40.7-20.8-61.3-3.9-12.4-8.5-24.5-11.5-37.1-.8-3.5-2.5-4.8-6.3-4.8-12.8.2-25.5,2-38.4.3-7.7-1-7.5-.5-5,7.1,1.8,5.4,5.1,10.9,3.6,16.8-1.8,6.9-4.5,13.5-6.9,20.2-3,8.6-5.8,17.2-8.9,25.8-2.6,6.8-4.6,13.9-7.3,20.6-2.9,7.2-5.4,14.6-8.2,21.8-6.8,17.4-12.5,35.3-18.9,53-3,8.2-8,14.6-17.3,16.1-2.5.4-3.2,2.1-3,4.4.2,1.7.6,3.3.6,4.9,0,2.5.8,3.4,3.6,3.1,14.9-1.5,29.9-.8,44.8,0,1.4,0,2.6.4,3.3-1.2,2.6-5.6-.5-11.4-6.6-11.9-7.8-.7-11-4.5-8.9-11.9,2.6-9.4,5.9-18.7,9.3-27.8,1.4-3.7,4.1-5.9,9.1-5.7,15.6.5,31.3.3,47,0,4.3,0,6.3,1.6,7.7,5.4,3.3,9.2,7.5,18.1,9.9,27.7,1.3,5.4,0,9-5.2,11.1-3.6,1.5-7.5,1.2-11.3,1.9-5.3,1-7.8,5-6,10.1.5,1.5,1.2,2.6,3.1,2.6,9.3-.4,18.6-.4,27.9-1,10-.6,20-.4,29.9-.1,15.3.4,30.6,2,45.9,1.4,10.5-.4,20.9-1.5,31.4-1.6,15.1,0,30.3.5,45.4.9,2.3,0,4.7,0,7,.3,2.8.4,5.8,1.7,6.6-2.7,1.2-6.8,0-9.7-4.8-10.3-4.4-.6-9,0-13.4-1.3-4.1-1.1-6.9-3.4-7.6-7.6-.5-3.1-1-6.3-1-9.4-.1-16.5-.1-33,0-49.5,0-1.9-1-5.2,2.1-5.2,3.7,0,8.2-2.5,11,1.7,10.5,16.1,20.9,32.2,32,47.9,6.5,9.2,12.4,18.8,19.4,27.6,2.2,2.8,3.5,7.3,8.8,7.6,19.4,1.1,38.9.1,58.4,1.7,2.5.2,5.5,1,6.1-3.1.9-5.8-.7-10.1-4.5-11.1ZM1060.5,1330.8c0,.3-.1.5-.3.8-.3.4-.8.7-1.6.8-.6.1-1.3.2-2.2.2-.3,0-.6,0-.9,0-6.5,0-13,0-19.5,0-6.5,0-13,0-19.5,0-3.9,0-5.1-1.1-3.7-5,5.9-16.4,11.5-32.9,17.5-49.2,2.2-6,2.8-12.6,6.7-19.5,2.1,5.6,3.9,10.1,5.3,14.6,2.1,6.7,4.1,13.3,6.2,20,2.1,6.7,4.1,13.3,6.4,19.9,1.5,4.4,3,8.8,4.6,13.2.5,1.3.8,2.3.9,3.1s0,.7,0,1ZM1275.7,1283.7c-5.8,12-16.1,17.6-28.3,20.6-5.5,1.4-11.2,1.3-16.9,1.2-3.7,0-4.9-1.6-4.9-5.2.1-11.2,0-22.3,0-33.5h0c0-11.2,0-22.3,0-33.5,0-3.6,1-5.1,4.8-5,7.8.2,15.7-.2,23.3,1.9,12.1,3.3,20.9,10.5,23.6,23.1,2.2,10.1,3.1,20.3-1.7,30.2ZM132.3,1393.3c-11.9-2.5-20.4-9.8-27.9-18.6-13.9-16.5-26-34.2-37.6-52.4-5.6-8.8-5.6-8.6,4.5-11.6,9.4-2.9,18.4-7.4,24.4-15.3,10.4-13.7,11-29.5,6.7-45.6-4.5-16.7-16.7-25.6-32.5-30.5-14.1-4.3-28.8-5.3-43.3-5.5-31.8-.6-63.6.2-95.4-1.2-8.1-.4-9.5,1.6-8.1,9.8.3,2,1.2,3,3.2,3.1,1.8,0,3.7-.1,5.5.1,12,1.7,17.4,2.2,17.3,18.2-.2,31.5,0,63,0,94.5,0,13.7,0,27.3,0,41,0,8.8-4.1,13.3-12.6,14.3-3,.3-6,.7-8.9.9-6.5.3-4.1,5.2-4.5,8.6-.4,4,2.1,4.8,5.4,4.5,3.8-.3,7.6-.7,11.4-.8,20.1-.4,40.2-1.3,60.4-.2,6.3.3,12.7-.4,19,.6,5.2.8,6.8-.4,7.4-5.4.6-5.2-1-7.5-5.8-7.9-2.2-.2-4.3,0-6.5-.1-10-.4-16-6.2-15.4-16,.5-8.1.1-16.3.1-24.5,0-9.3,0-18.7,0-28,0-1.4-.4-3.1,1.1-4.1,2.5-1.7,11-.1,12.7,2.5,3.8,5.6,7.5,11.3,11.3,16.9,6.6,9.9,13.3,19.8,19.8,29.8,6.4,9.9,14.1,18.8,20.1,29,1.7,2.9,3.7,7.2,7.9,6.8,4.1-.4,7.9.2,11.9.3,15.5.4,31-.7,46.4,1,2.5.3,5.9,1.2,6.6-3.2,1-7.1.2-9.8-4.5-10.8ZM48,1286.2c-6.1,11-16.4,15.7-27.9,18.2-5.1,1.1-10.5,1.4-15.9,1.3-4.1,0-5.6-1.1-5.5-5.4.3-11.2,0-22.3,0-33.5,0-11,.2-22,0-33,0-4.2,1.4-5.4,5.5-5.3,9.8.2,19.6-.2,28.8,4.1,9.8,4.5,15.9,11.7,18.1,22.6,2.2,10.8,2.4,21.1-3.2,31ZM-85,1349c-1.1-17.5-10.6-28.9-25.5-36.2-8.5-4.2-17.6-7.4-28.8-7.6,4.3-2.2,7.4-2.9,10.6-3.8,10.7-2.9,20.5-7.4,27.7-16.3,8.9-11,10.3-23.6,7.6-36.8-2.1-10.1-7.4-18.4-16.7-23.6-14.9-8.4-31.4-10.6-48-11-38.1-.8-76.3.6-114.4-1.3-6.8-.3-6.7,0-6.8,7-.1,4.6,1.7,5.9,6.1,6,16.5.3,20,4.1,20,20.6,0,39.1,0,78.3,0,117.4,0,5.8,0,11.7,0,17.5-.2,6.5-3.7,10.4-10.2,11.6-3.4.6-6.9,1.3-10.4,1.4-4.9.1-5.9,2.4-5.8,7,0,5.3,2,6.8,7.1,6.4,19.9-1.4,39.9-2,59.8-1.9,23.3,0,46.6.1,70-.2,12.3-.2,23.5-3.5,34.1-10.4,16.9-11,24.9-25.7,23.6-45.9ZM-203.1,1263.7h0c0-10,0-20,0-30,0-3.8,1.3-5.4,5.2-5.3,9.3.3,18.6,0,27.9,1,19.1,2.2,31.8,23.9,26.6,43.2-4.8,17.5-21,24.2-36.9,25.7-6.1.6-12.3,0-18.5.3-3.3,0-4.4-1.3-4.3-4.5.1-10.2,0-20.3,0-30.5ZM-141.9,1372.5c-5.7,11.2-16.3,14.8-27.7,17.1-5.9,1.2-11.9,1.1-16.4,1.1-5.1,0-8.8,0-12.5,0-3.5.1-4.7-1.5-4.7-4.8,0-22.5,0-45,0-67.4,0-2.9.6-4.9,4.1-4.9,10.8.1,21.6,0,32.2,2.5,6.8,1.6,12.8,4.5,18.4,8.5,4.9,3.5,7.4,8.8,8.9,14,3.3,11.4,3.1,23.1-2.4,34ZM590.7,1351.6c0,11.5,0,23,0,34.5,0,3,.7,4.7,4.2,4.6,19.8-.5,39.6,1.2,59.3-1.9,12.1-1.9,21.5-7.9,28.5-18,2.9-4.1,4.7-8.7,7-13.1,1.8-3.4,3.9-4,7.3-3,8.9,2.7,8.6,2.6,6.9,11.6-2.1,11.1-3.6,22.3-5.1,33.4-.5,4-1.9,7.2-6.3,6.5-5.9-1-11.6.2-17.4.2-47.6,0-95.3,0-142.9.2-4.3,0-8.6.5-12.9.8-2.9.2-4.8-1.1-4.3-4,.5-3.2-2.5-7.9,3.2-9,3.9-.8,8-.6,11.9-1.4,6.4-1.2,9.4-4.7,9.9-11.2.2-2.3.1-4.7.1-7,0-43,0-86,0-128.9,0-1.2,0-2.3,0-3.5-.3-12-4.1-16-16.1-16.7-1.7-.1-3.3-.2-5,0-3.1.2-4.2-1.3-4-4.2,0-1.2,0-2.3,0-3.5-.5-4.2,1.3-5.5,5.4-5.4,18.3.5,36.6,1,54.9,1.1,17.5.2,35,.6,52.5-.3,17.2-.8,34.3-.4,51.4-.8,6-.1,6.3.7,6.8,6.5,1,10.6.7,21.3,1.1,31.9.2,4.2-.9,5.7-5.5,5.9-6.6.3-10.8-.7-13.1-8.1-4.5-14-16.2-18.7-29.7-20.4-14.4-1.8-28.9-.6-43.4-1-3.1,0-4.5.9-4.5,4.2,0,21,0,42,0,63,0,2.6.8,4,3.7,4,12.6-.2,25.2.2,37.9-1.6,8.8-1.3,15.8-8.5,16.5-17.8.2-1.9-.4-4.6,2-5.1,3.5-.7,7.2-1.5,10.8-.3,1.5.5,1.2,2.3,1.2,3.6,0,18.7,0,37.3,0,56,0,3.3-1.3,4.5-4.4,4.3-1.8-.1-3.7-.1-5.5,0-2.7,0-3.7-1.3-4-3.9-1.6-12.6-5.8-17.2-18.1-19.5-12.2-2.3-24.6-1.2-36.9-1.4-3.3,0-3.2,2.2-3.2,4.5,0,11.5,0,23,0,34.5ZM146.9,1298c0-20.5,0-37.2,0-53.8,0-14-3.8-17.9-17.9-18.7-7.1-.4-8-1.7-6.8-8.6.6-3.6,2.3-4.5,5.8-4.3,24.3,1.3,48.6,1.2,72.9.9,5.3,0,10.6-.5,15.9-.9,4.2-.3,5.3,2.1,4.9,5.6-.3,3,1.8,7.4-4.3,7.5-4.1,0-8.5.2-12.3,1.5-8.4,2.9-8.2,10.6-8.2,17.5-.2,33.3,0,66.6,0,100,0,5.2.6,10.3,1.8,15.3,5.2,22.6,21.4,31.4,42.6,30.3,8.7-.5,17.2-2.2,24.3-7.8,10.9-8.6,14.4-20.7,16.4-33.6,1.2-8.1.9-16.3.9-24.4,0-27,0-54,0-81,0-13.3-4.4-18-17.5-17.8-6.4,0-5.3-3.5-5.5-7.4-.3-4.3,1.1-6.3,5.6-5.7,11.3,1.5,22.6,1.1,33.9,1,6.1,0,12.3-.5,18.4-.9,5.4-.4,4.4,3.8,4.9,6.8.6,3.4-.4,5.6-4.5,6-17.4,1.7-19.3,3.9-19.3,21.3,0,33.3.8,66.7-.5,99.9-.8,20.6-7.9,39.4-26.4,51.8-9.3,6.2-19.8,9.2-30.7,10.7-17.3,2.4-34.7,2.1-51.5-2.8-25-7.3-38.6-24.9-41.9-50.3-2.6-20.5-.3-41.3-1-58ZM1692.6,1393.6c-6.5-1.2-11.5-4.3-13.9-10.7-8.1-21-14.9-42.5-22.7-63.7-5.1-13.8-9.6-27.8-14.6-41.6-7.1-19.8-14.2-39.7-19.1-60.2-.8-3.5-2.8-5.4-6.8-4.9-4.6.6-9.3.8-13.9,1-8.8.5-17.6-.3-26.4-.9-3.5-.3-5.1.9-3.6,4.7.9,2.3,1.9,4.6,2.5,7.1,1,4.4,3.7,8.6,1.9,13.5-4.3,11.7-8.5,23.3-12.7,35-6.6,18.4-13.1,36.8-19.6,55.2-5,14.3-9.7,28.7-15,42.8-3.9,10.2-6.9,21.4-20.6,23.8-4.2.7-1.8,6-2,9.2-.2,2.9,2.3,2.7,4.3,2.7,7.2,0,14.3,0,21.5,0,0,0,0,0,0,0,6.5,0,13,0,19.5,0,6.6,0,7.1-.7,7.4-7.3.3-5.6-3.8-4.9-6.9-5.5-9.8-1.9-11.9-5.9-8.6-15.2,2.7-7.8,6.3-15.3,8.1-23.5.8-3.8,2.7-6.5,7.7-6.9,4.9-.3,9.6.3,14.4.3,12.2-.1,24.3,0,36.5,0,1.8,0,4-.7,5,2,3.3,9.4,7,18.6,10,28.2,3,9.6,0,13.6-9.9,14.9-1.1.2-2.3.3-3.5.1-8.3-1.1-9,4.4-7.7,10.4.5,2.5,1.6,3.1,4.1,3,28.5-1,56.9-1.3,85.4.2,1.3,0,2.7.3,3.7-.9,3-3.4.3-11.9-4.2-12.7ZM1604.6,1332.6c-13.6,0-27.3,0-40.9,0-4.2,0-4.2-2-3.1-5.1,6-16.8,12-33.7,17.9-50.5,2-5.6,3.6-11.3,5.4-16.9.5,0,.9,0,1.4,0,3,9.1,6.2,18.1,9.1,27.2,4.4,13.7,8.5,27.5,13.1,41.2,1.3,3.7.1,4.1-2.8,4.1ZM842.6,1305.5c.2,10.8-.2,18.6,1.1,26.4,2.7,15.9,7.6,31,19.3,42.6,7.7,7.7,17.6,11.8,28.5,13.1,20.9,2.5,38-4.8,52.1-20.1,3.7-4,7.6-8,10.4-12.7,2.6-4.3,5.6-2.7,8.9-.9,3.6,2,4.7,4.1,2.5,8-10.8,19.3-25.8,34.1-46.7,41.9-27,10.1-53.9,9-80.5-2.7-16.4-7.2-29.2-18.9-38.1-33.9-7.7-12.9-12.3-27.3-13.5-42.8-1-13.1-.6-25.9,2.2-38.6,1.4-6.5,3.5-12.8,6.3-18.9,9.9-21.7,26.1-37.1,47.3-47.7,12.9-6.4,26.7-8.8,40.9-9.8,21.6-1.5,41.4,3.8,60.1,14.4,1.1.7,2.5,1,3.7,1.6,7.8,4.1,13.5,8.7,12.3,19.4-.8,7.6.4,15.6.6,23.4,0,3.4-1.2,4.5-4.5,3.8-5.4-1.1-10.9-1.1-16.4,0-3,.6-5.2.2-5.6-3.5-1-8.3-3.4-16.4-6.9-23.8-4.9-10.3-13-17.9-24.5-20-13.7-2.5-26.7-.2-36.9,10.2-9,9.2-14.9,20.5-18,32.9-3.3,13.2-5.6,26.7-4.4,37.6ZM430.7,1209.3c24.7-.3,46.6,8,67,21.3,4.8,3.1,4.5,8,4.8,12.4.5,8.5.2,17,.4,25.5,0,4.1-2.2,4.3-5.2,3.6-5.5-1.2-11-1.2-16.4-.2-3.8.7-4.7-.9-5.3-3.9-1.6-8.2-3.5-16.2-7.3-23.7-4.8-9.4-11.9-16.7-22-19-11-2.5-22.3-2.1-32.6,4.7-16.7,11.1-22.5,28.2-26.2,46.3-2.5,12.4-3.9,25-3,37.7,1.1,17.3,3.3,34.2,12.6,49.6,8.4,14,20.2,21.7,35.8,23.8,24.1,3.1,43.1-6.3,57.7-25.2,1.8-2.4,4-4.6,5.4-7.2,2.5-4.6,6-3.4,9.3-1.7,3.5,1.9,4.9,4.9,2.5,8.7-7.4,11.4-15.1,22.5-26.5,30.6-14.5,10.2-30.4,15.4-48,17.1-11,1-21.8.7-32.2-1.8-18.4-4.4-35.2-12.2-48-27.2-7.7-8.9-14-18.5-18.2-29.4-5.8-15.1-7.2-30.9-6.4-47,1.6-28.8,13-52.9,35.2-71.5,19.2-16.2,41.7-23.4,66.7-23.6ZM1467.7,1307c0,23.8,0,47.6,0,71.5,0,9.9,4.5,14.5,14.5,15.1,3.2.2,6.3.3,9.4.9,5.8,1.1,3.4,5.9,3.8,9.3.4,3.2-2,3.8-4.6,3.5-20.8-1.9-41.6-.8-62.4-.9-11,0-22-.7-32.9,1-3.2.5-5.2-.6-4.8-4.3.1-1.7.1-3.3,0-5-.2-3.2,1.4-4.5,4.5-4.5,4,0,8,.3,11.9-.6,6.9-1.5,9.4-4.5,10.4-13.1.3-2.1.2-4.3.2-6.5,0-46,0-91.9,0-137.9,0-6-.9-7-7-6.8-7.8.3-15.6.8-23.1,3.2-11.5,3.6-16.6,12.6-19.8,23.1-2,6.7-8.7,10.3-15.1,7.3-1.9-.9-2-2.5-1.8-4.2,1.7-13.1.3-26.3,1.6-39.4.5-4.7,1.8-6.3,6.5-6.2,44.1,1.4,88.2,1.5,132.4,1,11.8-.1,23.6-.9,35.4-.9,4.1,0,5.5,1.5,5.8,5.5.9,11.1.9,22.3,1,33.4,0,.7,0,1.3,0,2,.2,2.9,3.1,6.7-.4,8.6-3.4,1.8-7.8.5-11.8.4-1.6,0-2-1.7-2.3-2.9-1.3-4.8-3.3-9.4-5.8-13.7-4.2-7.5-9.9-13.6-18.9-14.9-7.2-1.1-14.5-1.5-21.8-2.1-4.4-.4-5.2,2.1-5.2,5.9,0,24.2,0,48.3,0,72.5h0Z"/>
  </g>
  <g id="Layer_2" data-name="Layer 2" class="cls-10">
    <path class="cls-9" d="M-1.1,1266.8c0-11,.1-22,0-33,.2,11,0,22,0,33,0,11.2.2,22.3,0,33.5.3-11.2,0-22.3,0-33.5Z"/>
    <path class="cls-9" d="M1058.7,1332.4c-.6.1-1.3.2-2.2.2.9,0,1.6,0,2.2-.2Z"/>
    <path class="cls-9" d="M1055.5,1332.6c.3,0,.6,0,.9,0-.3,0-.6,0-.9,0h0Z"/>
    <rect class="cls-5" x="-544.4" y="-72.1" width="2494.9" height="1822.3"/>
    <path class="cls-8" d="M702.8,1458.5c-339.8,0-679.6,0-1019.4,0-3.7,0-4.6-.8-4.6-4.6,0-442.9,0-885.9,0-1328.8,0-3.7.8-4.6,4.6-4.6,679.6,0,1359.2,0,2038.8,0,3.7,0,4.6.8,4.6,4.6,0,442.9,0,885.9,0,1328.8,0,3.7-.8,4.6-4.6,4.6-339.8-.1-679.6,0-1019.4,0ZM323.7,746.8c0,51.7,0,103.3,0,155,0,52.7,0,105.3,0,158,0,3.5.4,4.8,4.5,4.8,73-.2,146-.1,219-.2,1.9,0,3.5-.2,5.4-1.5,6.9-4.8,12.5-11,19-16,2.2-1.7,2.4-2.9.5-5.2-6.6-7.9-13.1-15.9-19.5-24.1-2-2.6-3.4-2.3-5.5-.3-4.4,4.2-9.2,8.2-13.6,12.4-2,1.9-4,2.6-6.7,2.6-55,0-110-.2-165,0-5,0-5.9-1.5-5.9-6.2.1-191.8.1-383.6,0-575.4,0-3.2.9-5.2,3.5-7,19.1-13.7,38.1-27.6,57.1-41.4,56.3-41,112.5-82,168.8-123,21.4-15.6,42.7-31.1,64.1-46.7,19-13.8,37.9-27.6,56.8-41.6,2.3-1.7,4.5-1.7,6.3-.1,3.7,3.4,7.9,5.9,11.9,8.8,33.1,24.1,66.3,48.1,99.4,72.2,33.7,24.6,67.4,49.3,101.1,73.9,44.3,32.4,88.7,64.7,133.2,96.9,3.3,2.4,4.7,4.7,4.7,8.8-.1,191.6-.1,383.3,0,574.9,0,4.7-1.4,5.8-5.9,5.8-53.7,0-107.3-.1-161,.2-6.6,0-11.1-2.7-15-7-5.7-6.1-12.1-11.3-18.1-17.1-2-2-3.3-1.4-4.7.5-5.5,7.3-11.1,14.6-16.8,21.7-1.7,2.1-1.2,3.3.4,4.8,8.7,8.5,17.4,16.9,26,25.5,2.4,2.4,4.9,3.3,8.4,3.3,71,0,142,0,213,.2,4.5,0,5.8-1,5.8-5.7-.2-40.5-.1-81-.1-121.5,0-167,0-333.9.1-500.9,0-4.8-1.3-7.8-5.3-10.7-33.4-24-66.7-48.3-100-72.5-50.7-36.8-101.4-73.6-152.2-110.3-41.3-30-82.6-60-123.9-90.1-3-2.2-5-2.3-8.1,0-47.5,34.6-95,69-142.6,103.5-40.7,29.5-81.5,59-122.2,88.6-37.7,27.4-75.3,54.9-113.1,82.2-3,2.1-3.8,4.3-3.8,7.8,0,104,0,208,0,311.9ZM1175.8,1311h0c0,22.8,0,45.7,0,68.5,0,7.8-2.6,11.5-9.4,13.5-2.8.8-5.9,1-8.9,1.2-13.2,1.1-24.1-1.4-28.9-17.8-1.3-4.3-3.1-8.4-4.6-12.6-5.6-16.1-11.9-32-17.3-48.2-6.9-20.4-14.4-40.7-20.8-61.3-3.9-12.4-8.5-24.5-11.5-37.1-.8-3.5-2.5-4.8-6.3-4.8-12.8.2-25.5,2-38.4.3-7.7-1-7.5-.5-5,7.1,1.8,5.4,5.1,10.9,3.6,16.8-1.8,6.9-4.5,13.5-6.9,20.2-3,8.6-5.8,17.2-8.9,25.8-2.6,6.8-4.6,13.9-7.3,20.6-2.9,7.2-5.4,14.6-8.2,21.8-6.8,17.4-12.5,35.3-18.9,53-3,8.2-8,14.6-17.3,16.1-2.5.4-3.2,2.1-3,4.4.2,1.7.6,3.3.6,4.9,0,2.5.8,3.4,3.6,3.1,14.9-1.5,29.9-.8,44.8,0,1.4,0,2.6.4,3.3-1.2,2.6-5.6-.5-11.4-6.6-11.9-7.8-.7-11-4.5-8.9-11.9,2.6-9.4,5.9-18.7,9.3-27.8,1.4-3.7,4.1-5.9,9.1-5.7,15.6.5,31.3.3,47,0,4.3,0,6.3,1.6,7.7,5.4,3.3,9.2,7.5,18.1,9.9,27.7,1.3,5.4,0,9-5.2,11.1-3.6,1.5-7.5,1.2-11.3,1.9-5.3,1-7.8,5-6,10.1.5,1.5,1.2,2.6,3.1,2.6,9.3-.4,18.6-.4,27.9-1,10-.6,20-.4,29.9-.1,15.3.4,30.6,2,45.9,1.4,10.5-.4,20.9-1.5,31.4-1.6,15.1,0,30.3.5,45.4.9,2.3,0,4.7,0,7,.3,2.8.4,5.8,1.7,6.6-2.7,1.2-6.8,0-9.7-4.8-10.3-4.4-.6-9,0-13.4-1.3-4.1-1.1-6.9-3.4-7.6-7.6-.5-3.1-1-6.3-1-9.4-.1-16.5-.1-33,0-49.5,0-1.9-1-5.2,2.1-5.2,3.7,0,8.2-2.5,11,1.7,10.5,16.1,20.9,32.2,32,47.9,6.5,9.2,12.4,18.8,19.4,27.6,2.2,2.8,3.5,7.3,8.8,7.6,19.4,1.1,38.9.1,58.4,1.7,2.5.2,5.5,1,6.1-3.1.9-5.8-.7-10.1-4.5-11.1-8.7-2.1-16.1-6.3-22.4-12.8-10.1-10.3-18.9-21.6-27-33.5-6.1-9-12.2-18.1-18.4-27.1-2.3-3.3-1.5-6.2,2.4-7.5,6.2-2,12.3-4.3,17.8-7.7,6.9-4.3,12.1-9.9,15.8-17.3,4.8-9.5,3.9-19.5,3.3-29.4-.6-9.3-3.9-18.1-10.7-25-7.4-7.5-16.5-12-26.7-14.7-14.6-3.8-29.6-4.4-44.5-4.5-22.8-.1-45.7.1-68.5-.3-8.6-.2-17.3-.9-25.9-.9-1.8,0-3.8-.4-4.8,1.7-2.3,5,1.7,10.9,7,11.3,16.9,1.5,19.4,3.8,19.5,19.4,0,22,0,44,0,66ZM-1.1,1353.1c0-9.3,0-18.7,0-28,0-1.4-.4-3.1,1.1-4.1,2.5-1.7,11-.1,12.7,2.5,3.8,5.6,7.5,11.3,11.3,16.9,6.6,9.9,13.3,19.8,19.8,29.8,6.4,9.9,14.1,18.8,20.1,29,1.7,2.9,3.7,7.2,7.9,6.8,4.1-.4,7.9.2,11.9.3,15.5.4,31-.7,46.4,1,2.5.3,5.9,1.2,6.6-3.2,1-7.1.2-9.8-4.5-10.8-11.9-2.5-20.4-9.8-27.9-18.6-13.9-16.5-26-34.2-37.6-52.4-5.6-8.8-5.6-8.6,4.5-11.6,9.4-2.9,18.4-7.4,24.4-15.3,10.4-13.7,11-29.5,6.7-45.6-4.5-16.7-16.7-25.6-32.5-30.5-14.1-4.3-28.8-5.3-43.3-5.5-31.8-.6-63.6.2-95.4-1.2-8.1-.4-9.5,1.6-8.1,9.8.3,2,1.2,3,3.2,3.1,1.8,0,3.7-.1,5.5.1,12,1.7,17.4,2.2,17.3,18.2-.2,31.5,0,63,0,94.5,0,13.7,0,27.3,0,41,0,8.8-4.1,13.3-12.6,14.3-3,.3-6,.7-8.9.9-6.5.3-4.1,5.2-4.5,8.6-.4,4,2.1,4.8,5.4,4.5,3.8-.3,7.6-.7,11.4-.8,20.1-.4,40.2-1.3,60.4-.2,6.3.3,12.7-.4,19,.6,5.2.8,6.8-.4,7.4-5.4.6-5.2-1-7.5-5.8-7.9-2.2-.2-4.3,0-6.5-.1-10-.4-16-6.2-15.4-16,.5-8.1.1-16.3.1-24.5ZM-139.3,1305.2c4.3-2.2,7.4-2.9,10.6-3.8,10.7-2.9,20.5-7.4,27.7-16.3,8.9-11,10.3-23.6,7.6-36.8-2.1-10.1-7.4-18.4-16.7-23.6-14.9-8.4-31.4-10.6-48-11-38.1-.8-76.3.6-114.4-1.3-6.8-.3-6.7,0-6.8,7-.1,4.6,1.7,5.9,6.1,6,16.5.3,20,4.1,20,20.6,0,39.1,0,78.3,0,117.4,0,5.8,0,11.7,0,17.5-.2,6.5-3.7,10.4-10.2,11.6-3.4.6-6.9,1.3-10.4,1.4-4.9.1-5.9,2.4-5.8,7,0,5.3,2,6.8,7.1,6.4,19.9-1.4,39.9-2,59.8-1.9,23.3,0,46.6.1,70-.2,12.3-.2,23.5-3.5,34.1-10.4,16.9-11,24.9-25.7,23.6-45.9-1.1-17.5-10.6-28.9-25.5-36.2-8.5-4.2-17.6-7.4-28.8-7.6ZM590.7,1351.6c0-11.5,0-23,0-34.5,0-2.2-.1-4.5,3.2-4.5,12.3.2,24.7-.9,36.9,1.4,12.4,2.3,16.5,6.8,18.1,19.5.3,2.6,1.3,4,4,3.9,1.8,0,3.7,0,5.5,0,3.2.2,4.4-1,4.4-4.3-.1-18.7,0-37.3,0-56,0-1.3.3-3-1.2-3.6-3.6-1.2-7.3-.4-10.8.3-2.4.5-1.9,3.2-2,5.1-.7,9.2-7.7,16.5-16.5,17.8-12.6,1.8-25.2,1.4-37.9,1.6-2.9,0-3.7-1.3-3.7-4,0-21,0-42,0-63,0-3.4,1.4-4.3,4.5-4.2,14.5.4,29-.8,43.4,1,13.4,1.7,25.2,6.3,29.7,20.4,2.3,7.4,6.6,8.4,13.1,8.1,4.5-.2,5.7-1.7,5.5-5.9-.4-10.6-.1-21.3-1.1-31.9-.5-5.8-.9-6.6-6.8-6.5-17.1.4-34.3,0-51.4.8-17.5.9-35,.4-52.5.3-18.3-.2-36.6-.6-54.9-1.1-4.1-.1-5.9,1.2-5.4,5.4.1,1.2.1,2.3,0,3.5-.2,2.9,1,4.4,4,4.2,1.7-.1,3.3,0,5,0,12,.7,15.9,4.8,16.1,16.7,0,1.2,0,2.3,0,3.5,0,43,0,86,0,128.9,0,2.3,0,4.7-.1,7-.5,6.5-3.5,10-9.9,11.2-3.9.7-8,.6-11.9,1.4-5.7,1.1-2.7,5.9-3.2,9-.5,2.9,1.4,4.2,4.3,4,4.3-.3,8.6-.8,12.9-.8,47.6-.1,95.3-.3,142.9-.2,5.8,0,11.5-1.2,17.4-.2,4.4.7,5.7-2.5,6.3-6.5,1.5-11.2,3.1-22.4,5.1-33.4,1.7-9,2-8.9-6.9-11.6-3.4-1-5.5-.4-7.3,3-2.3,4.4-4.1,9-7,13.1-7,10.1-16.4,16.1-28.5,18-19.7,3.1-39.6,1.5-59.3,1.9-3.5,0-4.2-1.6-4.2-4.6,0-11.5,0-23,0-34.5ZM146.9,1298c.7,16.8-1.6,37.5,1,58,3.2,25.4,16.8,43,41.9,50.3,16.8,4.9,34.2,5.2,51.5,2.8,10.9-1.5,21.4-4.5,30.7-10.7,18.5-12.3,25.6-31.2,26.4-51.8,1.3-33.3.4-66.6.5-99.9,0-17.4,1.9-19.6,19.3-21.3,4.1-.4,5.1-2.6,4.5-6-.5-3,.5-7.2-4.9-6.8-6.1.4-12.3.9-18.4.9-11.3,0-22.6.5-33.9-1-4.5-.6-5.9,1.4-5.6,5.7.2,3.8-.8,7.5,5.5,7.4,13.2-.2,17.5,4.6,17.5,17.8,0,27,0,54,0,81,0,8.1.3,16.3-.9,24.4-2,12.9-5.5,25-16.4,33.6-7.1,5.6-15.6,7.4-24.3,7.8-21.2,1.1-37.4-7.7-42.6-30.3-1.2-5-1.8-10.1-1.8-15.3,0-33.3,0-66.6,0-100,0-6.9-.1-14.6,8.2-17.5,3.8-1.3,8.2-1.5,12.3-1.5,6.1,0,4-4.5,4.3-7.5.3-3.5-.7-5.9-4.9-5.6-5.3.4-10.6.9-15.9.9-24.3.3-48.6.4-72.9-.9-3.5-.2-5.2.7-5.8,4.3-1.2,6.9-.3,8.2,6.8,8.6,14.1.8,17.9,4.7,17.9,18.7,0,16.7,0,33.3,0,53.8ZM1531.8,1406.5s0,0,0,0c6.5,0,13,0,19.5,0,6.6,0,7.1-.7,7.4-7.3.3-5.6-3.8-4.9-6.9-5.5-9.8-1.9-11.9-5.9-8.6-15.2,2.7-7.8,6.3-15.3,8.1-23.5.8-3.8,2.7-6.5,7.7-6.9,4.9-.3,9.6.3,14.4.3,12.2-.1,24.3,0,36.5,0,1.8,0,4-.7,5,2,3.3,9.4,7,18.6,10,28.2,3,9.6,0,13.6-9.9,14.9-1.1.2-2.3.3-3.5.1-8.3-1.1-9,4.4-7.7,10.4.5,2.5,1.6,3.1,4.1,3,28.5-1,56.9-1.3,85.4.2,1.3,0,2.7.3,3.7-.9,3-3.4.3-11.9-4.2-12.7-6.5-1.2-11.5-4.3-13.9-10.7-8.1-21-14.9-42.5-22.7-63.7-5.1-13.8-9.6-27.8-14.6-41.6-7.1-19.8-14.2-39.7-19.1-60.2-.8-3.5-2.8-5.4-6.8-4.9-4.6.6-9.3.8-13.9,1-8.8.5-17.6-.3-26.4-.9-3.5-.3-5.1.9-3.6,4.7.9,2.3,1.9,4.6,2.5,7.1,1,4.4,3.7,8.6,1.9,13.5-4.3,11.7-8.5,23.3-12.7,35-6.6,18.4-13.1,36.8-19.6,55.2-5,14.3-9.7,28.7-15,42.8-3.9,10.2-6.9,21.4-20.6,23.8-4.2.7-1.8,6-2,9.2-.2,2.9,2.3,2.7,4.3,2.7,7.2,0,14.3,0,21.5,0ZM842.6,1305.5c-1.1-10.8,1.2-24.3,4.4-37.6,3-12.4,8.9-23.7,18-32.9,10.2-10.4,23.2-12.6,36.9-10.2,11.6,2.1,19.7,9.8,24.5,20,3.5,7.4,6,15.5,6.9,23.8.4,3.7,2.6,4.1,5.6,3.5,5.4-1.1,10.9-1.1,16.4,0,3.3.6,4.6-.4,4.5-3.8-.2-7.8-1.4-15.8-.6-23.4,1.2-10.7-4.5-15.3-12.3-19.4-1.2-.6-2.5-.9-3.7-1.6-18.6-10.6-38.5-15.9-60.1-14.4-14.2,1-28,3.4-40.9,9.8-21.1,10.6-37.3,26-47.3,47.7-2.8,6.1-4.8,12.4-6.3,18.9-2.8,12.7-3.2,25.6-2.2,38.6,1.2,15.4,5.8,29.9,13.5,42.8,9,15,21.7,26.7,38.1,33.9,26.5,11.6,53.4,12.7,80.5,2.7,20.9-7.8,35.9-22.6,46.7-41.9,2.2-3.8,1.1-6-2.5-8-3.3-1.8-6.3-3.4-8.9.9-2.9,4.7-6.7,8.7-10.4,12.7-14.1,15.3-31.2,22.6-52.1,20.1-10.9-1.3-20.8-5.4-28.5-13.1-11.7-11.7-16.6-26.7-19.3-42.6-1.3-7.8-.9-15.6-1.1-26.4ZM430.7,1209.3c-24.9.2-47.4,7.5-66.7,23.6-22.2,18.6-33.6,42.7-35.2,71.5-.9,16.1.6,31.9,6.4,47,4.2,10.9,10.5,20.5,18.2,29.4,12.9,15,29.6,22.8,48,27.2,10.4,2.5,21.2,2.8,32.2,1.8,17.6-1.6,33.5-6.9,48-17.1,11.5-8.1,19.1-19.1,26.5-30.6,2.5-3.8,1.1-6.8-2.5-8.7-3.3-1.8-6.8-3-9.3,1.7-1.4,2.6-3.6,4.8-5.4,7.2-14.6,18.9-33.6,28.3-57.7,25.2-15.6-2-27.5-9.8-35.8-23.8-9.3-15.5-11.4-32.3-12.6-49.6-.8-12.7.5-25.3,3-37.7,3.7-18.1,9.5-35.2,26.2-46.3,10.3-6.8,21.5-7.2,32.6-4.7,10.1,2.3,17.2,9.6,22,19,3.8,7.5,5.7,15.6,7.3,23.7.6,3,1.5,4.6,5.3,3.9,5.4-1,10.9-1,16.4.2,3,.7,5.3.5,5.2-3.6-.2-8.5.2-17-.4-25.5-.3-4.4,0-9.3-4.8-12.4-20.4-13.3-42.2-21.6-67-21.3ZM1462.7,1307h0c0-24.2,0-48.3,0-72.5,0-3.8.8-6.3,5.2-5.9,7.3.6,14.6,1,21.8,2.1,9,1.4,14.7,7.4,18.9,14.9,2.4,4.3,4.5,8.9,5.8,13.7.3,1.3.7,2.9,2.3,2.9,4,.1,8.4,1.4,11.8-.4,3.5-1.9.6-5.6.4-8.6,0-.7,0-1.3,0-2-.1-11.1-.2-22.3-1-33.4-.3-4-1.8-5.5-5.8-5.5-11.8,0-23.6.8-35.4.9-44.1.5-88.3.4-132.4-1-4.7-.1-6,1.5-6.5,6.2-1.3,13.1,0,26.3-1.6,39.4-.2,1.7-.1,3.3,1.8,4.2,6.5,3,13.1-.6,15.1-7.3,3.1-10.5,8.3-19.5,19.8-23.1,7.6-2.4,15.3-3,23.1-3.2,6.1-.2,7,.8,7,6.8,0,46,0,91.9,0,137.9,0,2.2,0,4.3-.2,6.5-1,8.7-3.5,11.6-10.4,13.1-4,.9-8,.7-11.9.6-3.1,0-4.7,1.3-4.5,4.5,0,1.7.1,3.3,0,5-.3,3.7,1.6,4.8,4.8,4.3,10.9-1.7,22-1,32.9-1,20.8.1,41.6-1,62.4.9,2.7.2,5-.3,4.6-3.5-.4-3.4,2-8.2-3.8-9.3-3.1-.6-6.3-.7-9.4-.9-9.9-.6-14.5-5.3-14.5-15.1,0-23.8,0-47.6,0-71.5ZM706.8,342.1c-1.8,2-2.9,4-3.7,6.2-4.4,12.9-7.1,26.3-10,39.6-4.6,21.8-7.1,44-8.1,66.2-.9,18.1-1.5,36.2-.7,54.3.7,15.8,2.3,31.5,2.8,47.3.3,9.3,1.7,18.5,3.1,27.7,2,13,4.5,25.9,6.7,38.8,1.3,7.9,1.9,8.2,9.7,6,5.5-1.6,8.2-4.4,9.6-10.3,2-8.5,2.5-17.1,4.1-25.6,1.9-10.1,2.9-20.4,3.6-30.6.9-12.9,1.3-25.9,2.3-38.8,1.5-20.7.2-41.2-.7-61.8-.8-19.6-3.4-39-6.1-58.4-1.9-13.5-3.8-26.9-6.8-40.2-1.5-6.7-.9-14.1-5.6-20.4ZM498.7,460.7c-1.4.2-2.9-.4-3.3,1.1-.4,1.3,1,1.4,1.9,1.8,23.4,10.1,42.5,26.3,60.2,44.2,15.7,15.8,29.5,33.1,42.6,51.2,14.1,19.5,27.1,39.8,39.3,60.5,6.2,10.4,11.7,21.2,17.7,31.8,2.6,4.5,3.8,4.5,6.6.2,3.7-5.7,7.2-11.5,10.8-17.3,1.3-2.1,1.6-4.2.8-6.6-3.6-10.2-6.6-20.6-10.7-30.5-9.5-23.3-21.2-45.4-36.6-65.3-13.4-17.3-29.1-32.1-47.9-43.4-12.3-7.4-25.5-12.8-38.9-17.7-13.9-5-28.4-6.8-42.4-9.8ZM920.6,460.9c-4.3,0-7.5-.5-10.5,0-16.4,3-32.5,7-48.1,12.7-34.5,12.4-60.8,35.7-82.6,64.4-6.2,8.1-11,17.3-15.8,26.4-9.6,18.2-17.4,37.2-24.3,56.6-2.3,6.4-2.5,11.9,2,17.5,3.7,4.6,6.5,9.9,9.7,15,1.3,2,2.4,2.2,3.6,0,4.2-7.5,7.8-15.3,11.8-22.9,3.9-7.5,7.9-14.9,12.3-22,9-14.7,17.9-29.4,28-43.3,11.4-15.9,23.8-30.9,36.7-45.6,10.5-12,22.3-22.6,35.1-32.2,10.3-7.8,20.5-15.6,32.4-20.9,3.1-1.4,6.3-2.6,9.8-5.7ZM710.2,774.7c-1.8.7-3.3,2.1-4.5,3.6-12.7,14.8-24.4,30.3-36.2,45.8-1.3,1.8-1.3,3.1,0,4.8,10.5,13.3,21,26.6,33.1,38.6,1.8,1.8,3,1.8,4.8-.2,12.5-13.9,23.4-29,33.9-44.3.9-1.3,1.5-2.5.2-4-11.1-13.1-20.2-27.7-29-42.3-.5-.8-.9-1.8-2.2-2ZM650.5,925.4c2.2-.6,3.8-2.1,5.3-3.6,12-11.7,20.7-25.9,28.9-40.4,1-1.7.7-2.9-.8-4.3-11.2-10.8-20.6-23-29.9-35.4-2-2.7-3.2-3-5.5-.3-9,10.5-19,20-29.7,28.8-2.4,1.9-2.3,3.5-1.1,5.9,4.3,8.8,8.5,17.7,13.7,26.1,4.3,7.1,8.7,14.2,14.7,20.1,1.3,1.3,2.5,2.8,4.5,3.1ZM702.5,898.7c-.6.9-.8,1.2-1.1,1.6-9.4,15.2-19.1,30.1-33,41.7-2,1.6-1.4,3-.3,4.7,3.7,6,7.3,11.9,11.7,17.4,5.5,6.9,11.1,13.7,18.9,18.2,3.9,2.2,7.4,1.7,10.6-1.1,3.5-3,6.8-6.2,9.5-10.1,6.2-8.9,11.2-18.5,15.7-28.3,1.2-2.6.3-3.9-1.5-5.5-7.3-6.4-13.4-13.8-18.9-21.8-3.7-5.4-7.4-10.9-11.5-16.8ZM753,843.5c-.8.4-1.1.5-1.3.8-9.5,13.8-18.2,28.2-29.9,40.4-1.6,1.7-.8,3,0,4.4,6.9,12.1,14.1,24.1,23.3,34.7,5.7,6.5,6.9,6.5,13.1.8.2-.2.5-.5.7-.7,11-10.9,18.8-24,26.1-37.5,1.1-2.1.5-3.3-1.2-4.7-5.1-4.1-9.5-8.9-13.4-14.1-6-7.9-13.2-15-17.5-24.2ZM657,532.9c.4-1.7.7-2.3.6-2.9,0-1.3-.2-2.7-.4-4-3.4-19.1-7.1-38.2-6.7-57.8,0-3.7-.4-7.7-3-10.3-6.5-6.4-13-12.8-20-18.5-12.4-10.1-26.2-18.2-40.8-24.9-5.4-2.5-10.8-5-16.8-5.7-1-.1-2.2-.2-2.5,1-.3.9.6,1.4,1.2,2,3,2.9,5.9,5.8,9,8.6,12.9,11.8,23.4,25.7,34.4,39.2,4.8,5.8,9.5,11.9,13.1,18.6,4.4,8.3,9.2,16.5,14,24.6,5.7,9.7,10.9,19.7,18,30ZM754.2,531.7c1.5.1,1.7-.8,2.1-1.5,10.2-15,18.2-31.3,27.3-47,9.6-16.5,21.5-31.3,34.3-45.5,7.7-8.5,15.5-16.8,23.8-24.7,1-1,3-2.1,2.2-3.5-.9-1.7-3.1-.8-4.5-.4-11.2,3.3-21.6,8.6-31.7,14.2-14.2,8-27,18.1-38.5,29.7-5.2,5.3-8.9,10.5-8.4,18.7.9,12.6-1.6,25.1-3.5,37.6-1.1,7.4-3,14.8-3.1,22.3ZM800.5,902.7c-1.2.8-.8,2.3-1.7,3.4-10.1,11.3-18.7,23.6-27.4,36-1.6,2.2-2.1,3.6,0,5.9,3.2,3.6,6.1,7.5,9.8,10.5,8.3,6.9,17.8,9.9,28.3,6.8,13.5-3.9,22.3-13.9,30.5-24.6,1.7-2.2-.7-2.9-1.7-3.8-12.9-10.9-24-23.7-37.7-34.2ZM596.7,894.6c-.8.7-1.8,1.5-2.7,2.4-7,7.1-13.6,14.6-22,20.2-3,2-3.6,3.8-2.2,6.9,1,2.1,1.5,4.4,2.4,6.5,6,14.7,14.3,27.7,27.8,36.9,3,2.1,5,2,7.7-.6,5.9-5.7,11.2-11.8,16.5-18.1,5.5-6.6,5.5-6.7-.2-13.1-10.3-11.6-17.8-25.1-24.9-38.8-.5-.9-.4-2.4-2.4-2.5ZM754.5,1024c4.1-.6,7.8-2,11.2-4.3,8.1-5.5,13.3-13.3,17.5-21.8,3.7-7.4,3.6-7.4-2.4-12.9-8.1-7.4-16.2-14.7-24.2-22.1-2.9-2.7-5.2-3.1-8.1.7-7.6,10.1-15,20.3-22.2,30.6-1.2,1.7-1.6,3-.1,4.8,6.9,8.3,13.9,16.5,22.9,22.7,1.7,1.1,3.4,2.1,5.4,2.2ZM646,955.5c-1,1.1-2.2,2.3-3.2,3.6-7.1,9.2-14.7,18.1-23.4,25.8-2.1,1.8-1.7,3-.4,5,8,12.2,17.8,22.7,28.9,32.1,2.9,2.5,5.1,1.2,7.6-.4,10-6.3,17.2-15.4,24.9-24,1.3-1.5,1.2-2.5-.4-3.6-13.4-9.7-23-22.7-31.8-36.4-.5-.8-.8-1.8-2.2-2.1ZM788,759.8c-.6-.8-1.2-1.6-1.9-2.3-4.7-5.2-9.5-10.4-15.5-13.9-9.2-5.4-16-6.3-24.4-.7-6.9,4.6-13.4,9.7-20,14.9-2.6,2-2.6,3.5-.8,6.1,8,11.3,17.2,21.5,26.3,31.9,2.5,2.8,3.9,2.4,6.4.1,11-10.2,19.7-22.5,28.9-34.2.4-.5.7-1.1,1.1-1.8ZM798.4,860.7c.7-.5,1.4-.9,1.9-1.5,9.8-10.1,19.5-20.4,27.7-31.9,1.8-2.6.5-3.2-1.4-4.4-11.8-7.5-23.4-15.2-34.5-23.6-2.2-1.7-3.7-2.1-5.7.3-6,7.1-12.1,14.1-18.3,21-1.3,1.5-1.3,2.7-.1,4.4,8.2,11.9,17,23.3,27.4,33.5.8.8,1.8,1.4,2.9,2.2ZM637.4,754.8c.4,3.8.8,7.6,1.3,11.4,1.8,11.7,4.2,23.3,9,34.2.8,1.7,1.3,4.9,4.3,1.8,11.1-11.3,22.3-22.5,32.8-34.3,1.3-1.5,2.2-2.7.7-4.7-6.8-9.1-13.9-17.8-22.6-25.2-1.7-1.4-3.4-2.1-5.5-1.2-4.2,1.7-8.4,3.2-12.5,5.1-5.4,2.5-9.3,6.1-7.5,13ZM842.8,838c-4.8,5.6-9.1,10.2-13.2,14.9-6.9,7.9-15.2,14.3-22,22.3-1.2,1.4-2.7,2.5-1.1,4.7,10.5,14.8,24.3,26.1,39.9,36.1,4.5-26.4,3.7-51.8-3.6-77.9ZM706.8,700.5c.4-.1,1.3-.2,1.9-.7,9.7-7.8,19.6-15.2,28.7-23.6,1.7-1.6,1.4-3.4-.2-4.8-9.9-8.4-18.3-18.3-27.7-27.2-2.1-2-4.2-1.8-6,.3-7.6,8.5-15.5,16.7-23.7,24.6-5.1,5-4.8,6.7,1.1,11.1,7.7,5.7,15,12,22,18.6,1,1,2,1.7,3.8,1.7ZM637.1,823.5c-.2-.7-.3-1.2-.6-1.6-5.8-9.1-11.8-18-19.4-25.7-1.9-1.9-4-1.8-6.3-.5-8.4,4.7-16.8,9.4-25.2,14-1.4.7-2.1,1.4-1.6,3,4.7,13.1,9.2,26.3,16.1,38.5,1.1,1.9,2.1,2,3.9.6,10.8-8.3,21.8-16.3,31.2-26.2.7-.7,1.3-1.5,1.8-2.1ZM703.3,1004.2c-9.1,11.8-17.9,23.3-29.7,32-1.9,1.4-.9,2.3,0,3.6,5.2,6.4,11.2,12,18.8,15.3,6.2,2.8,12.9,3.6,19.2.2,7.5-4.1,13.3-10.4,19.2-16.5,1.2-1.3,1.7-2.3,0-3.6-10.9-8.5-19-19.5-27.6-30.9ZM525.2,612.5c4,0,7.3,0,10.6,0,19.5-.4,38.1,3.7,56.4,10.5,7.5,2.8,13.9,7.6,21.6,9.7,1.1.3,2.2,2.2,3.5.6.9-1.1.2-2.6-.2-3.8-2.6-6.9-6-13.4-10.6-19.1-8.7-10.8-19.5-17.5-33.9-18-12.4-.4-23.5,3.5-33.9,9.3-4.7,2.6-10.8,3.9-13.4,10.7ZM791.3,634.7c30.3-15.8,61.1-24.7,95.3-21.1-7.2-8.2-24.9-17.4-37.5-19.9-10.4-2.1-20.5-1.5-30.1,3.2-8.5,4.1-14.4,11.2-19.6,18.6-3.6,5.1-6.7,11-8.1,19.2ZM569.7,831.7c-3.8,23-6,44.7-6.6,67.6,10-7.5,18.5-15.2,26.8-23.1,1.6-1.5,1.5-2.5.4-4.2-8.1-12.2-14.4-25.4-20.6-40.3ZM839.2,971.1c-9.4,5.1-18.1,8.7-27.1,11.5-2.7.8-3.1,2.3-2.9,4.8,1,8.8,4.7,16.5,9,24.1,1.2,2.2,2.3,2.5,4,.4,9.5-11.6,14.3-25.2,17-40.9ZM736.5,731.3c-14.1-8.8-42.6-9-54.2-.2,7,6.9,15.9,10.8,24.2,15.7,1.7,1,2.7,0,4.1-.6,8.9-4.2,16.4-10.7,26-14.8ZM596.8,1006.4c-2.7,1.6-3.9,4.9-5.9,7.3-1.4,1.7,0,3.1,1,4.4,5.8,7.7,12.3,14.8,19.6,21.1,7.1,6,7,6.1,14.4,1q6.7-4.6.7-9.7c-1.3-1.1-2.5-2.2-3.7-3.4-7-6.5-13.5-13.8-21.8-18.9-1.3-.8-2.4-1.8-4.4-1.9ZM806.8,1031.8c-.6-.9-1.2-1.7-1.8-2.5-1.9-2.7-4.1-5.3-5.7-8.2-2.1-3.8-3.7-4.1-6.7-.7-5.9,6.5-11.3,13.6-18.4,18.9-5.9,4.4-5.7,4.3-1.5,10.1,2.4,3.4,4.6,3.8,8.3,2,8.7-4.4,16.4-10,23.2-16.9.8-.8,1.6-1.7,2.5-2.6ZM834.3,804.7c.3-.4.6-.7.9-1.1-5.1-11.5-13.1-20.9-21.8-29.9-2.5-2.6-5.2-5.1-8.4-6.9-2.3-1.3-3.9-1.3-4.5,1.9-.9,4.6-1.8,9.1-2,13.8,0,1.5,0,2.9,1.7,3.8,11.4,6.1,22.7,12.3,34.1,18.4ZM584.7,789.9c7.2-2.6,14.5-5.4,21.7-7.9,4.5-1.5,7.5-3.6,8-9.1.7-7,4.5-13.2,6.6-20-14.5,9.9-29.1,19.5-36.4,37ZM568.4,960.2c2.5,11.2,4.3,21,8.3,30.1,4.4,10.1,6,10.4,13.8,2.9,5.1-4.9,5.5-9.1.3-14-6.8-6.3-14-12.1-22.3-19.1ZM731,1065.9c9.5-.5,17.3-2.4,25.1-3.7,1.9-.3,3-1.4,1.7-3.5-2.1-3.6-4.1-7.2-6.3-10.7-1.3-2-2.9-2.1-4.4-.1-4.5,6.1-9.9,11.6-16.1,18.1ZM666,1064.6c-3.2-5.4-7.9-9.1-12.3-13-6.4-5.6-6.3-5.5-10.5,1.8-1.7,2.9-1.6,4.3,1.9,5.3,7,1.8,14,3.9,20.9,5.9Z"/>
  </g>
</svg>