<?xml version="1.0" encoding="UTF-8"?>
<svg id="Layer_1" data-name="Layer 1" xmlns="http://www.w3.org/2000/svg" viewBox="0 0 3123.27 3123.27">
  <defs>
    <style>
      .cls-1 {
        fill: #fff;
      }

      .cls-1, .cls-2 {
        stroke: #f4b900;
        stroke-linecap: round;
        stroke-miterlimit: 10;
        stroke-width: 30px;
      }

      .cls-3 {
        letter-spacing: -.02em;
      }

      .cls-4 {
        fill: #f4b900;
      }

      .cls-4, .cls-5 {
        stroke-width: 0px;
      }

      .cls-6 {
        letter-spacing: -.07em;
      }

      .cls-7 {
        letter-spacing: -.04em;
      }

      .cls-8 {
        letter-spacing: -.06em;
      }

      .cls-5, .cls-9 {
        fill: #004a34;
      }

      .cls-9 {
        font-family: Plantain-Regular, Plantain;
        font-size: 366px;
      }

      .cls-2 {
        fill: none;
      }

      .cls-10 {
        letter-spacing: -.02em;
      }

      .cls-11 {
        letter-spacing: 0em;
      }
    </style>
  </defs>
  <circle class="cls-1" cx="1561.63" cy="1561.63" r="1546.63"/>
  <text class="cls-9" transform="translate(248.99 2312.45)"><tspan class="cls-10" x="0" y="0">B</tspan><tspan class="cls-7" x="256.2" y="0">R</tspan><tspan class="cls-11" x="518.62" y="0">U</tspan><tspan x="780.68" y="0">CE </tspan><tspan class="cls-3" x="1366.27" y="0">C</tspan><tspan x="1624.3" y="0">A</tspan><tspan class="cls-8" x="1883.06" y="0">R</tspan><tspan class="cls-6" x="2138.15" y="0">T</tspan><tspan x="2366.53" y="0">A</tspan></text>
  <g id="Piinapple">
    <path class="cls-4" d="M1663.86,1563.55c-1.1,1.44-1.88,2.71-2.9,3.75-24.02,24.26-48.09,48.46-72.06,72.78-2.74,2.78-4.64,2.84-7.4.04-23.97-24.31-48.01-48.55-72.13-72.71-3.14-3.15-2.51-5.3.31-8.13,23.58-23.63,47.05-47.38,70.62-71.02,4.54-4.55,5.23-4.53,9.74,0,23.56,23.65,47.07,47.36,70.56,71.08,1.19,1.2,2.09,2.68,3.26,4.21Z"/>
    <path class="cls-4" d="M1482.92,1588.1c1.84,1.64,3.57,3.02,5.12,4.58,23.01,23.14,46,46.3,68.97,69.48,4.95,5,4.95,5.1.03,10.06-16.08,16.23-32.18,32.43-48.29,48.62-7.43,7.48-15.01,14.81-22.29,22.44-2.9,3.04-5.01,3.23-8.02.18-23.8-24.12-47.68-48.17-71.61-72.17-2.74-2.75-2.61-4.79.12-7.53,24.11-24.17,48.11-48.45,72.17-72.67,1.02-1.03,2.3-1.81,3.8-2.97Z"/>
    <path class="cls-4" d="M1561.18,1459.53c-1.04,1.39-1.79,2.68-2.8,3.7-24.02,24.24-48.1,48.42-72.05,72.72-2.89,2.93-4.77,2.4-7.38-.25-23.79-24.11-47.64-48.17-71.57-72.13-3.28-3.28-3-5.6.15-8.75,23.59-23.61,47.09-47.29,70.51-71.06,3.16-3.21,5.48-3.31,8.69-.07,23.78,24.12,47.69,48.12,71.53,72.17,1.03,1.04,1.84,2.29,2.93,3.66Z"/>
    <path class="cls-4" d="M1689.11,1380.47c1.56,1.16,3.09,2.02,4.29,3.22,23.56,23.64,47.03,47.37,70.64,70.95,3.44,3.43,3.45,5.72-.08,9.23-23.64,23.56-47.13,47.27-70.5,71.09-3.4,3.47-5.52,3.73-9.06.13-23.37-23.83-46.9-47.49-70.51-71.09-3.16-3.16-3.5-5.24-.13-8.59,23.81-23.74,47.43-47.67,71.14-71.51,1.2-1.21,2.65-2.18,4.21-3.44Z"/>
    <path class="cls-4" d="M1664.14,1354.76c-1.77,2.07-3.09,3.84-4.63,5.39-18.55,18.73-37.13,37.44-55.69,56.15-4.6,4.63-9.15,9.31-13.79,13.9-4.74,4.7-4.85,4.73-9.43.15-11.36-11.36-22.64-22.8-33.96-34.21-11.67-11.76-23.36-23.51-35.02-35.28q-5.55-5.61-.25-10.96c21.05-21.2,42.37-42.14,63.01-63.74,6.41-6.71,15.47-7.41,22.58.06,20.24,21.28,41.25,41.83,61.93,62.69,1.72,1.74,3.28,3.64,5.26,5.85Z"/>
    <path class="cls-4" d="M1688.72,1746.15c-1.32-1.07-2.56-1.9-3.6-2.94-23.9-24-47.74-48.07-71.71-72-3.03-3.03-2.92-5.04.05-8.01,23.77-23.78,47.46-47.64,71.06-71.59,3.06-3.11,5.11-3.7,8.51-.24,23.57,23.98,47.27,47.84,71.09,71.56,3.34,3.33,3.13,5.7.08,8.75-9.92,9.92-19.75,19.93-29.64,29.89-10.23,10.31-20.47,20.62-30.75,30.88-3.9,3.89-7.92,7.67-11.94,11.45-.88.83-1.98,1.42-3.15,2.25Z"/>
    <path class="cls-4" d="M1585.29,1850.45c-1.83-1.56-3.58-2.86-5.11-4.39-16.66-16.7-33.28-33.43-49.91-50.15-6.55-6.58-12.96-13.31-19.7-19.68-3.42-3.23-3.98-5.46-.3-9.13,23.65-23.54,47.15-47.23,70.52-71.05,3.6-3.67,5.75-3.09,9.06.28,23.2,23.63,46.58,47.09,69.88,70.63,2.42,2.45,5.46,4.4,1.31,8.49-23.75,23.43-47.27,47.1-70.89,70.67-1.4,1.4-2.94,2.64-4.86,4.34Z"/>
    <path class="cls-4" d="M1813.4,1567.47c-.83,19.47-1.58,35.06-2.12,50.66-.17,4.87-1.92,8.69-5.54,11.89-2.62,2.32-4.99,4.93-7.42,7.46-5.71,5.95-6.21,6.02-11.86.37-9.06-9.06-18.05-18.18-27.07-27.27-13.98-14.08-27.98-28.13-41.92-42.25-4.75-4.81-4.79-4.99-.21-9.62,23.5-23.74,47.12-47.35,70.51-71.2,3.59-3.66,5.97-3.56,9.06.18,2.07,2.51,4.41,4.85,6.88,6.96,3.92,3.34,5.62,7.58,5.93,12.57,1.33,21.35,2.67,42.69,3.76,60.25Z"/>
    <path class="cls-4" d="M1358.6,1567.9c1.27-17.11,3.11-39.43,4.48-61.78.34-5.54,2.38-9.55,6.44-12.96,1.91-1.61,3.67-3.45,5.29-5.36,3.26-3.84,6.06-3.19,9.31.2,8.19,8.5,16.58,16.8,24.9,25.18,14.87,14.97,29.76,29.91,44.6,44.9,5.25,5.3,5.26,5.41,0,10.72-22.81,23.01-45.63,46.01-68.49,68.97-5.59,5.62-5.4,5.03-11.46.31-10.28-7.99-13.81-18.2-13.46-30.93.31-11.29-.85-22.63-1.61-39.24Z"/>
    <path class="cls-4" d="M1457.94,1770.9c-1.17,1.54-2.06,3.03-3.24,4.22-7.38,7.51-14.98,14.81-22.18,22.49-3.56,3.8-6.33,3.44-9.03-.45-8.44-12.13-17.5-23.9-24.98-36.62-10.48-17.82-17.07-37.45-23.06-57.23-.15-.48-.21-.99-.4-1.45-1.52-3.63-.29-6.43,2.75-8.46,3.39-2.27,5.01.95,6.78,2.72,19.67,19.69,39.25,39.47,58.86,59.22,3.71,3.74,7.46,7.44,11.11,11.23,1.18,1.23,2.13,2.69,3.39,4.31Z"/>
    <path class="cls-4" d="M1797.81,1699.31c-3.7,10.52-6.83,20.07-10.4,29.46-9.18,24.16-21.75,46.35-38.47,66.07q-5.74,6.77-11.92.6c-6.55-6.56-12.99-13.25-19.68-19.67-3.31-3.17-4.1-5.54-.39-9.24,23.61-23.54,46.99-47.32,70.59-70.87,1.44-1.44,4.72-2.81,6.07-2.11,1.98,1.02,2.99,3.95,4.21,5.76Z"/>
    <path class="cls-4" d="M1794.14,1431.49c-.29.58-.75,2.17-1.12,2.15-1.31-.07-2.94-.33-3.83-1.18-5.64-5.34-11.17-10.81-16.63-16.34-18.7-18.92-37.31-37.92-56.08-56.76-2.71-2.72-3.24-4.7-.33-7.47,5.27-5.02,10.58-10.03,15.53-15.36,3.34-3.59,5.97-2.93,8.6.42,9.3,11.84,19.21,23.25,27.62,35.7,11.18,16.54,18.51,35.13,24.89,54.04.48,1.43.83,2.9,1.36,4.79Z"/>
    <path class="cls-4" d="M1717.92,1825.47c-1.82.85-3.71,1.58-5.46,2.57-10.46,5.91-20.38,13.2-31.45,17.52-15.55,6.06-31.94,9.98-48.01,14.68-2.03.59-4.31.31-6.48.44,1.11-2.05,1.83-4.5,3.4-6.1,16.34-16.69,32.82-33.24,49.26-49.83,2.12-2.14,4.26-4.26,6.41-6.38,2.2-2.17,4.37-2.08,6.53.09,7.43,7.49,14.88,14.95,22.3,22.46.68.69,1.12,1.62,1.66,2.44.61.7,1.22,1.4,1.83,2.11Z"/>
    <path class="cls-4" d="M1543.01,1861.13c-30.77-4.85-58.66-14.68-83.83-31.68-5.79-3.91-5.79-4.63-.97-9.57,6.49-6.65,13.18-13.1,19.54-19.87,3.21-3.41,5.97-4.01,9.41-.48,18.75,19.24,37.55,38.41,56.3,57.65.81.83,1.21,2.06,1.8,3.1-1.04.39-2.09.78-2.25.84Z"/>
    <path class="cls-4" d="M1379.79,1434.15c-.36-1.73-1.05-3.03-.76-4.01,1.31-4.32,2.78-8.61,4.41-12.82,11.14-28.85,25.78-55.53,47.86-77.54q5.8-5.78,11.77.23c3.17,3.2,6.38,6.37,9.54,9.59,5.8,5.92,5.81,5.95.13,11.67-20.66,20.8-41.33,41.59-61.99,62.38-2.65,2.67-5.27,5.36-7.94,8-.7.69-1.52,1.27-3.03,2.51Z"/>
    <path class="cls-4" d="M1707.44,1311.85c-.99,1.51-1.51,2.66-2.35,3.51-4.2,4.31-8.49,8.54-12.72,12.81-2.38,2.4-4.46,2.52-6.98-.09-11.84-12.26-23.82-24.38-35.69-36.62-.95-.98-1.44-2.4-2.15-3.61,1.19.05,2.41-.08,3.55.17,18.22,4,35.21,11.2,51.5,20.2,1.65.91,3.06,2.27,4.83,3.61Z"/>
    <path class="cls-4" d="M1523.85,1288.93c-1.4,1.75-1.95,2.58-2.64,3.27-11.64,11.78-23.33,23.5-34.91,35.33-2.63,2.69-4.8,3.08-7.52.18-3.6-3.84-7.38-7.52-11.18-11.17-2.59-2.48-2.84-4.28.61-6.34,16.03-9.56,33.04-16.67,51.09-21.24,1.14-.29,2.41-.04,4.54-.04Z"/>
  </g>
  <g id="Leaves">
    <path class="cls-5" d="M1550.54,941.04c.73-55.61,3.76-96.13,9.24-136.53,4.86-35.84,13.68-70.73,23.22-105.49.62-2.26,2.32-4.22,3.52-6.32.96,2.08,2.29,4.07,2.82,6.25,8.93,36.27,16.4,72.82,21.24,109.89,4.42,33.92,7.83,67.9,7.89,102.14.04,26.33.96,52.74-.55,78.99-2.62,45.38-8.61,90.39-19.59,134.63-1.3,5.25-3.75,8.32-8.49,10.13-15.49,5.91-13.73,9.09-16.9-8.18-5.9-32.06-11.92-64.19-15.64-96.55-3.96-34.42-5.31-69.14-6.74-88.96Z"/>
    <path class="cls-5" d="M1625.27,1140.09c.95-3.98,1.64-7.3,2.53-10.58,10.41-38.41,23.61-75.79,41.65-111.34,16.58-32.66,37.41-62.25,65.02-86.57,25.09-22.11,54.14-37.25,86.37-46.01,12.83-3.49,25.95-5.9,38.96-8.68,1.84-.39,3.82-.11,5.74-.15-1.45,1.43-2.84,2.92-4.35,4.3-9.62,8.8-20.34,16.65-28.67,26.53-19.65,23.33-38.87,47.1-56.98,71.63-34.29,46.46-65.11,95.27-95.27,144.48-10.37,16.92-20.53,33.98-30.83,50.94-3.31,5.44-3.61,5.43-6.74-.25-5.04-9.15-10.04-18.32-14.91-27.56-1.19-2.26-1.81-4.81-2.51-6.75Z"/>
    <path class="cls-5" d="M1546.52,1140.04c-.61,1.7-1.04,3.49-1.86,5.07-5.17,9.96-10.37,19.92-15.69,29.8-2.83,5.26-3.09,5.29-6.2.2-15.25-24.97-29.84-50.36-45.73-74.9-25.83-39.89-51.76-79.76-79.07-118.64-17.82-25.38-37.6-49.46-57.6-73.2-8.98-10.66-20.66-19.06-31.07-28.52-1.06-.96-1.88-2.2-2.81-3.3,1.25-.15,2.56-.61,3.75-.41,42.8,7.26,83.22,20.78,117.88,47.76,19.44,15.13,35.94,33.34,49.98,53.7,26.83,38.91,44.63,81.98,58.53,126.83,2.94,9.48,5.5,19.07,8.2,28.62.64,2.25,1.11,4.55,1.7,6.99Z"/>
    <path class="cls-5" d="M1523.07,984.75c-.05.38-.2,1.36-.34,2.35-.9-.74-2.16-1.29-2.63-2.24-8.17-16.63-16.87-33.04-24.22-50.03-16.05-37.16-36.93-71.31-61.92-103.03-8.39-10.65-17.09-21.06-25.6-31.62-.74-.92-1.08-2.17-1.6-3.26,1.22.12,2.52,0,3.66.39,15.45,5.27,29.4,13.43,42.84,22.51,20.27,13.7,37.24,30.92,52.88,49.59,4.7,5.61,7.12,11.4,7.18,19.08.22,29.51,3.83,58.75,8.53,87.86.42,2.57.76,5.16,1.24,8.39Z"/>
    <path class="cls-5" d="M1648.44,980.44c2.37-18.88,5.07-37.73,6.99-56.65,1.29-12.69,1.72-25.49,2.05-38.26.13-4.96,1.34-9.08,4.33-13,23.73-31.09,53.19-55.06,88.72-71.43,4.16-1.92,8.77-2.87,13.17-4.26-2.62,3.68-4.99,7.58-7.9,11.01-25.61,30.11-48.84,61.92-67.07,97.04-11.29,21.76-21.03,44.33-31.56,66.49-2.35,4.94-5.05,9.72-7.68,14.53-.45.83-1.35,1.41-2.04,2.11-.02-.99-.14-1.99-.03-2.97.17-1.55.5-3.09.77-4.63.08,0,.17.02.25.03Z"/>
    <path class="cls-5" d="M1629.49,1213.88c-1.16,1.64-2,3.28-3.24,4.53-11.78,11.83-23.67,23.54-35.4,35.42-3.08,3.12-5.59,3.05-8.56.01-11.86-12.11-23.75-24.19-35.73-36.2-2.51-2.51-2.65-4.35-.25-7.23,11.52-13.8,22.77-27.83,34.16-41.74,5.37-6.55,5.85-6.64,11.52-.03,11.54,13.45,22.93,27.03,34.34,40.59,1.15,1.36,2.02,2.95,3.17,4.64Z"/>
    <path class="cls-5" d="M1753.76,1117.57c-13.38,1.93-26.75,3.88-40.13,5.73-1.69.23-3.46-.1-5.19-.17.62-1.63.93-3.49,1.91-4.87,8.98-12.64,19.04-24.11,33.1-31.52,16.65-8.76,32.67-7.26,48.27,2.36,15.02,9.26,25.67,22.75,35.11,37.3,2.38,3.67,4.32,7.61,6.47,11.42-4.19-1.61-8.49-2.99-12.56-4.87-21.2-9.82-43.48-14.36-66.98-15.39Z"/>
    <path class="cls-5" d="M1405.11,1081.16c12.26.17,23.28,4.37,32.15,12.45,8.22,7.48,15.25,16.29,22.65,24.65,1.1,1.24,1.34,3.25,1.97,4.9-1.73.02-3.48.19-5.19.02-13.7-1.4-27.37-3.57-41.1-4.16-26.43-1.14-51.05,6.19-74.5,17.95-1.07.53-2.29.76-3.44,1.12.14-.95,0-2.07.46-2.81,10.9-17.59,22.36-34.7,40.43-45.99,8.13-5.08,16.82-8.26,26.56-8.12Z"/>
  </g>
  <path id="House" class="cls-2" d="M1367.84,1783.1s-62.34,46.61-72.21,46.61h-281.36c-22.2,0-40.2-19.29-40.2-43.09v-942.39c0-14.28,6.6-27.62,17.61-35.64l571.48-416.02c13.66-9.94,31.61-9.92,45.24.06l571.98,418.49c10.97,8.03,17.54,21.35,17.54,35.59v930.93c0,24.05-18.37,52.45-40.81,52.08h-289.16c-7.8-.13-58.84-46.61-58.84-46.61"/>
</svg>