<?xml version="1.0" encoding="UTF-8"?>
<svg id="Layer_1" data-name="Layer 1" xmlns="http://www.w3.org/2000/svg" viewBox="0 0 2603.54 2403.35">
  <defs>
    <style>
      .cls-1 {
        fill: #00a651;
      }

      .cls-1, .cls-2, .cls-3 {
        stroke-miterlimit: 10;
      }

      .cls-1, .cls-3 {
        stroke: #000;
      }

      .cls-2 {
        fill: #c7edff;
        stroke: #f7931e;
        stroke-width: 52px;
      }

      .cls-4 {
        fill: #3fa9f5;
        opacity: 0;
        stroke-width: 0px;
      }

      .cls-3 {
        fill: #f68b1f;
      }
    </style>
  </defs>
  <rect class="cls-4" x="13.75" y="13.75" width="2575.15" height="2377.1"/>
  <path class="cls-2" d="M2577.54,1201.68c-1.61,649.31-571.18,1175.68-1275.77,1175.68S26,1850.99,26,1201.68,597.18,24.95,1301.77,26c704.83,1.05,1277.36,533.24,1275.77,1175.68Z"/>
  <g id="Pinapple_House" data-name="Pinapple House">
    <g id="House">
      <path class="cls-3" d="M1500.54,808.65c5.85-8.8,21.64-22.06,33.28-27.11-17-12.33-19.94-14.09-36.94-26.42-7.9,11.93-15.19,22.47-22.72,34.62,12.73,9.29,13.67,9.6,26.38,18.9Z"/>
      <path class="cls-3" d="M1219.4,723.34c12.28-8.95,15.75-12.65,28.02-21.61-.62-17.03-1.94-31.79-3.13-48.78-28.23,20.52-39.84,29.08-68.1,49.56,7.28,12.59,13.65,24.87,20.02,37.97,10.15-7.39,13.05-9.74,23.2-17.14Z"/>
      <path class="cls-3" d="M1093.22,816.63c13.33-9.71,13.04-10.85,26.37-20.56-7.72-12.26-16.6-23.77-24.64-35.83-.47.34-18.55,13.16-34.65,24.83,15.37,7.33,30.81,25.07,32.92,31.57Z"/>
      <path class="cls-3" d="M1098.58,1777.84c-5.8-7.6-11.33,5.68-18.72,10.91-6.48,5.53-11.35,11.6-17.89,16.94-2.85,2.33-7.86,4.18-11.49,4.18-74.71-.11-147.07-.34-221.78-.12-6.83.02-8.01-2.09-8.01-8.39.16-260.58.15-521.15.03-781.73,0-4.33,1.22-7.02,4.74-9.56,25.93-18.64,51.74-37.45,77.56-56.26,50.18-36.54,91.72-65.14,141.89-101.69-17.33-7.84-34.95-12.33-52.83-16.1-21.62,15.68-34.75,24-56.36,39.7-51.22,37.21-102.32,74.59-153.61,111.7-4.01,2.9-5.13,5.87-5.13,10.59.13,141.27.1,282.54.1,423.8,0,70.18,0,140.36,0,210.54,0,71.54.04,143.08-.1,214.62,0,4.69.6,6.55,6.08,6.54,99.16-.22,193.08.29,292.24-.31,6.42-.04,8.86-3.02,11.25-5.39,8.78-8.71,13.81-13.66,21.83-21.51,2.68-2.63,16.69-14.38,14.09-17.46-9.03-10.71-15.42-19.87-23.92-31.01Z"/>
      <path class="cls-3" d="M1348.09,648.43c-1.13,16.96-2.79,30.88-3.71,47.88,23.98,17.43,32.9,23.04,56.9,40.45,3.52-7.24,5.99-13.5,9.75-20.63,2.96-5.61,5.42-10.91,8.46-16.51-29.71-21.57-41.73-29.56-71.4-51.18Z"/>
      <path class="cls-3" d="M1824.34,1680.73c0-226.84-.02-453.69.14-680.53,0-6.48-1.7-10.59-7.13-14.5-45.42-32.65-90.59-65.66-135.87-98.52-27.66-20.07-46.78-33.46-74.45-53.53-18.48,3.07-37.77,6.78-55.67,12.85,16.54,12.11,25.68,18.53,42.24,30.61,60.25,43.97,120.52,87.92,180.91,131.7,4.42,3.21,6.43,6.32,6.43,12.02-.16,260.35-.16,520.7.01,781.05,0,6.42-1.91,7.88-8.01,7.87-72.9-.13-145.8-.17-218.7.26-8.93.05-15.09-3.68-20.43-9.46-7.69-8.31-16.48-15.38-24.55-23.23-2.77-2.7-4.44-1.94-6.45.69-7.54,9.89-15.02,19.83-22.83,29.51-2.32,2.87-1.62,4.42.6,6.59,11.84,11.5,23.65,23.03,35.34,34.68,3.24,3.23,6.7,4.48,11.35,4.48,96.45-.06,192.89,0,289.34.26,6.11.02,7.95-1.38,7.91-7.76-.28-55.01-.19-110.02-.19-165.04Z"/>
    </g>
    <g id="Pinapple_Body" data-name="Pinapple Body">
      <path class="cls-3" d="M1305.46,1146.6c2.81.34,3.61,2.44,4.69,4.23,18.87,31.17,38.05,62.13,61.71,89.99,2.71,3.19,1.57,5.59-.38,8.45-22.37,32.7-45.52,64.78-72.1,94.27-3.82,4.23-6.29,4.24-10.16.37-25.57-25.57-47.92-53.87-70.3-82.16-2.91-3.68-2.96-6.53-.1-10.26,25.16-32.83,50.03-65.89,77-97.29,2.71-3.16,5.78-6.17,9.65-7.59Z"/>
      <path class="cls-3" d="M1178.59,1467.08c-4.24-.7-6.75-3.89-9.46-6.55-12.75-12.49-21.96-27.63-31.17-42.69-10.89-17.81-19.92-36.63-29.04-55.39-2.51-5.16-2.73-8.44,2.3-12.55,22.73-18.61,43.86-38.97,63.04-61.23,4.99-5.79,7.43-5.14,11.73.58,19.77,26.25,39.86,52.28,63.58,75.19,3.11,3,3.77,5.39,1.68,9.09-17.42,30.83-35.73,61.02-61.34,85.99-3.23,3.15-6.71,6.33-11.31,7.57Z"/>
      <path class="cls-3" d="M1289.28,1410.19c8.58,12.59,16.43,24.21,24.4,35.76,11.67,16.93,24.74,32.68,40.2,46.3,3.79,3.34,5.73,6.22,3.21,11.71-9.61,20.9-20.23,41.19-33.33,60.15-5.65,8.18-12.75,14.92-20.12,21.38-6.78,5.95-14.29,7.01-22.5,2.34-16.72-9.51-28.51-24.07-40.21-38.73-9.28-11.63-17.07-24.29-24.83-36.95-2.2-3.58-3.49-6.41.72-9.91,29.58-24.58,50.23-56.28,70.13-88.55.53-.86,1.11-1.68,2.32-3.5Z"/>
      <path class="cls-3" d="M1396.62,1292.79c9.25,19.4,24.37,34.53,37.22,51.35,8.36,10.94,17.7,21.19,28.49,29.91,3.5,2.83,4.88,5.41,2.46,9.89-15.49,28.69-32.17,56.52-55.47,79.77-.5.5-1,1.01-1.52,1.49-13.26,12.11-15.81,12.16-27.85-1.65-19.62-22.48-34.89-47.94-49.61-73.75-1.74-3.06-3.41-5.92,0-9.46,24.89-25.9,43.45-56.51,63.6-85.95.33-.48,1.08-.67,2.69-1.6Z"/>
      <path class="cls-3" d="M1497.49,1418.78c29.16,22.33,52.75,49.62,80.18,72.73,2.25,1.9,7.32,3.41,3.68,8.13-17.41,22.61-36.19,43.91-64.8,52.23-22.42,6.53-42.56.02-60.21-14.56-7.92-6.54-14.12-14.76-20.93-22.41-4.32-4.86-3.14-7.73.21-12.5,18.46-26.23,36.74-52.58,58.18-76.5,2.07-2.31,1.06-5.46,3.68-7.13Z"/>
      <path class="cls-3" d="M1064.22,1401.49c4.2.15,4.06,3.32,5.1,5.32,15.12,29.12,30.96,57.76,52.92,82.5,12.03,13.55,12.1,13.76.35,27.75-11.14,13.26-22.52,26.3-34.98,38.4-5.66,5.49-9.97,5.56-16.39,1.18-28.6-19.54-46.22-47.17-59.07-78.45-1.88-4.57-3.1-9.42-5.14-13.91-2.97-6.55-1.61-10.41,4.76-14.66,17.74-11.83,31.75-27.96,46.69-42.97,1.95-1.96,4.12-3.7,5.76-5.16Z"/>
      <path class="cls-3" d="M1399.71,1676.63c-4.19-.27-7.92-2.22-11.45-4.66-19.12-13.22-34.08-30.61-48.74-48.35-3.2-3.87-2.25-6.51.31-10.18,15.35-22.01,31.04-43.75,47.27-65.14,6.05-7.97,10.88-7.12,17.12-1.42,17.16,15.69,34.33,31.35,51.5,47.03,12.73,11.63,12.91,11.73,5.05,27.41-9.06,18.08-20.09,34.66-37.29,46.25-7.18,4.84-15.03,7.79-23.77,9.05Z"/>
      <path class="cls-3" d="M1169.03,1530.9c2.94.48,3.57,2.64,4.7,4.38,18.77,29.09,39.05,56.88,67.61,77.42,3.29,2.36,3.62,4.55.79,7.71-16.41,18.3-31.85,37.59-53,50.94-5.2,3.29-9.83,6.11-16.09.81-23.62-19.98-44.46-42.33-61.5-68.21-2.75-4.18-3.52-6.75.88-10.59,18.69-16.32,34.67-35.18,49.84-54.75,2.15-2.77,4.63-5.28,6.78-7.71Z"/>
      <path class="cls-3" d="M1471.03,1115.06c-.9,1.47-1.51,2.73-2.35,3.81-19.65,24.92-37.95,50.96-61.44,72.68-5.19,4.8-8.23,5.69-13.51-.28-19.41-21.95-38.85-43.82-55.87-67.74-3.89-5.47-3.76-8.59,1.74-12.92,13.88-10.91,27.74-21.81,42.47-31.59,17.86-11.87,32.36-9.83,51.93,1.56,12.82,7.46,23.08,18.53,33.03,29.58,1.38,1.54,2.62,3.2,4,4.9Z"/>
      <path class="cls-3" d="M1493.08,1329.4c-2.33-1.76-4.49-3.05-6.23-4.75-22.06-21.55-40.82-45.8-58.27-71.15-2.45-3.56-2.52-6.17.23-9.31,13-14.86,26.05-29.67,38.8-44.75,4.22-4.99,7.36-4.26,12.14-.62,23.6,17.96,48.4,34.23,73.38,50.18,4.01,2.56,6.79,3.87,2.9,9.35-17.41,24.54-38.02,46.25-58.82,67.82-1.17,1.21-2.67,2.09-4.13,3.22Z"/>
      <path class="cls-3" d="M1150.67,1104.3c-3.86-14.53,4.49-22.15,15.93-27.54,8.62-4.06,17.66-7.22,26.48-10.85,4.53-1.87,8.16-.42,11.67,2.54,18.54,15.63,33.71,34.25,48.15,53.58,3.21,4.3,1.39,6.89-1.4,10.03-22.32,25.16-46.04,48.98-69.64,72.92-6.47,6.57-7.57-.14-9.18-3.8-10.21-23.18-15.34-47.76-19.15-72.64-1.23-8.04-1.92-16.16-2.85-24.24Z"/>
      <path class="cls-3" d="M1587.5,1281.19c15.46,55.62,17.31,109.58,7.68,165.67-33.27-21.23-62.45-45.13-84.85-76.69-3.28-4.62-.08-7.02,2.42-9.96,14.39-16.94,31.97-30.72,46.66-47.43,8.73-9.93,17.87-19.59,28.09-31.58Z"/>
      <path class="cls-3" d="M1150.21,1250.3c-1.23,1.45-2.49,3.09-3.91,4.57-20.11,20.99-43.5,38.06-66.39,55.74-3.83,2.96-6.02,2.64-8.3-1.38-14.7-25.92-24.22-54.01-34.26-81.88-1.24-3.43.39-4.89,3.31-6.48,17.96-9.79,35.84-19.75,53.66-29.82,4.94-2.79,9.54-2.96,13.5,1.1,16.05,16.47,28.81,35.45,41.16,54.72.54.85.71,1.94,1.24,3.43Z"/>
      <path class="cls-3" d="M1290.85,1634.49c18.28,24.33,35.48,47.72,58.62,65.72,3.68,2.87,2.66,5.04.04,7.73-12.58,12.94-24.93,26.25-40.92,35.05-13.42,7.38-27.61,5.55-40.85-.35-16.09-7.16-28.87-18.92-39.9-32.59-2.13-2.64-4.27-4.66-.2-7.63,25.19-18.31,43.76-42.9,63.21-67.94Z"/>
      <path class="cls-3" d="M1006.94,1267.81c13.1,31.64,26.52,59.66,43.72,85.7,2.39,3.62,2.56,5.71-.8,8.87-17.72,16.73-35.67,33.15-57.03,49.03,1.28-48.48,5.93-94.72,14.11-143.61Z"/>
      <path class="cls-3" d="M1579.69,1564.19c-5.82,33.38-16.04,62.17-36.2,86.9-3.56,4.36-5.89,3.81-8.51-.91-8.98-16.12-16.94-32.56-19.04-51.26-.59-5.29.3-8.38,6.09-10.19,19.18-5.98,37.69-13.77,57.66-24.54Z"/>
      <path class="cls-3" d="M1361.4,1054.28c-20.31,8.85-36.31,22.7-55.22,31.56-2.88,1.35-5.13,3.38-8.67,1.33-17.67-10.21-36.52-18.58-51.37-33.27,24.62-18.79,85.21-18.23,115.27.38Z"/>
      <path class="cls-3" d="M1064.39,1639.24c4.25.21,6.64,2.45,9.33,4.09,17.67,10.78,31.29,26.23,46.27,40.11,2.59,2.4,5.15,4.84,7.83,7.14q12.63,10.87-1.5,20.63c-15.73,10.86-15.62,10.74-30.66-2.11-15.65-13.38-29.31-28.56-41.7-44.93-2.07-2.74-5.25-5.64-2.2-9.32,4.37-5.28,6.97-12.13,12.64-15.6Z"/>
      <path class="cls-3" d="M1510.88,1693.29c-1.9,2.04-3.51,3.87-5.23,5.6-14.53,14.66-31.01,26.54-49.41,35.99-7.74,3.98-12.4,3.01-17.56-4.19-8.9-12.43-9.35-12.11,3.16-21.52,15.11-11.36,26.56-26.33,39.03-40.23,6.42-7.15,9.86-6.56,14.23,1.59,3.31,6.17,7.97,11.62,12.02,17.39,1.2,1.7,2.38,3.41,3.75,5.38Z"/>
      <path class="cls-3" d="M1569.26,1210.49c-24.14-13.07-48.25-26.21-72.46-39.16-3.58-1.91-3.77-4.81-3.66-8.01.35-9.91,2.32-19.57,4.16-29.29,1.32-6.98,4.63-6.94,9.58-4.11,6.81,3.89,12.54,9.11,17.95,14.71,18.42,19.06,35.4,39.16,46.34,63.57-.64.77-1.27,1.53-1.91,2.3Z"/>
      <path class="cls-3" d="M1038.82,1178.86c15.48-37.08,46.49-57.64,77.4-78.61-4.52,14.44-12.62,27.67-14.13,42.51-1.18,11.65-7.51,16.09-17.06,19.38-15.49,5.33-30.82,11.13-46.21,16.73Z"/>
      <path class="cls-3" d="M1004.11,1541.04c17.57,14.92,33.03,27.16,47.41,40.55,11.12,10.35,10.33,19.32-.57,29.74-16.62,15.89-19.95,15.27-29.3-6.23-8.46-19.48-12.22-40.28-17.54-64.05Z"/>
      <path class="cls-3" d="M1349.82,1765.72c13.22-13.91,24.63-25.43,34.27-38.5,3.16-4.28,6.58-4.03,9.26.27,4.66,7.48,8.89,15.23,13.43,22.78,2.77,4.6.3,6.84-3.69,7.53-16.6,2.87-33.07,6.79-53.28,7.92Z"/>
      <path class="cls-3" d="M1211.54,1762.98c-14.83-4.21-29.6-8.62-44.5-12.54-7.41-1.95-7.56-5.1-4.04-11.19,8.98-15.51,8.75-15.67,22.32-3.84,9.51,8.29,19.5,16.1,26.22,27.58Z"/>
    </g>
    <g id="Leaves">
      <path class="cls-1" d="M1298.33,247.32c9.9,13.49,8.64,29.16,11.88,43.42,6.39,28.14,10.51,56.75,14.54,85.41,5.8,41.3,11.29,82.56,13.05,124.17,1.84,43.76,4.69,87.49,1.48,131.43-2,27.46-2.79,55.04-4.8,82.54-1.6,21.84-3.75,43.62-7.73,65.11-3.34,18.04-4.43,36.35-8.74,54.35-3.01,12.56-8.81,18.5-20.43,21.83-16.4,4.7-17.7,4.1-20.52-12.77-4.59-27.53-9.94-54.93-14.15-82.51-2.98-19.52-5.93-39.2-6.51-58.88-.99-33.58-4.42-66.99-5.88-100.55-1.69-38.65-.27-77.1,1.58-115.54,2.27-47.26,7.44-94.4,17.28-140.73,6-28.24,11.89-56.63,21.18-84.11,1.61-4.75,3.92-8.89,7.76-13.17Z"/>
      <path class="cls-1" d="M855.9,499.51c29.71,6.26,60.58,10.02,90.04,20.75,28.59,10.42,56.57,21.83,82.75,37.55,40.07,24.07,73.44,55.53,101.85,92.28,32.78,42.4,57.59,89.48,77.8,138.92,8.67,21.19,15.05,43.3,22.66,64.93,1.82,5.16,1.12,9.66-1.68,14.13-7.68,12.26-15.14,24.66-23.05,36.77-5.92,9.07-8.47,9.1-13.93-.5-12.73-22.38-24.46-45.35-37.56-67.51-26.02-44.01-53.58-87.01-83.57-128.52-27.73-38.39-57.2-75.25-90.51-108.82-37.63-37.93-78.06-72.46-127.91-93.93-1.85-.8-4.81-.86-3.99-3.72.89-3.13,4.07-1.96,7.1-2.32Z"/>
      <path class="cls-1" d="M1752.87,500.01c-7.29,6.46-14.21,9.13-20.78,12.04-25.37,11.22-46.98,27.97-68.98,44.48-27.2,20.41-52.33,42.96-74.63,68.42-27.31,31.18-53.62,63.17-77.95,96.88-21.46,29.75-40.48,60.95-59.52,92.15-9.26,15.17-17.85,30.93-26.14,46.79-8.44,16.17-16.17,32.75-25.11,48.67-2.6,4.63-4.94,4.22-7.62-.06-6.71-10.72-12.78-21.98-20.6-31.84-9.49-11.98-9.11-23.54-4.25-37.2,14.68-41.2,31.19-81.6,51.63-120.25,10.18-19.26,20.39-38.92,33.54-56.14,46.45-60.84,102.25-110.41,175.66-136.81,33.28-11.97,67.54-20.61,102.32-26.95,6.47-1.18,13.34-.17,22.42-.17Z"/>
      <path class="cls-1" d="M1192.45,652.94c-15.17-21.76-26.08-43.14-38.28-63.72-10.24-17.27-20.29-34.67-29.69-52.4-7.65-14.43-17.69-27.22-27.8-39.65-23.32-28.67-45.75-58.23-73.15-83.36-6.5-5.96-12.72-12.22-19.11-18.29-1.28-1.21-3.12-2.28-2.56-4.22.75-2.6,3.3-2.46,5.33-2.23,12.76,1.45,24.33,6.85,35.75,12.07,30.95,14.15,60.27,31.29,86.64,52.85,14.96,12.23,28.89,25.78,42.61,39.4,5.7,5.66,6.65,14.14,6.47,21.96-.95,41.67,7.09,82.25,14.25,122.95.49,2.78.77,5.61.89,8.42.06,1.25-.52,2.54-1.35,6.21Z"/>
      <path class="cls-1" d="M1399.12,650.32c.08-16.12,4.09-31.75,6.49-47.51,4.03-26.52,9.33-53.02,7.42-79.87-1.23-17.27,6.72-28.49,17.77-39.68,24.47-24.79,51.66-46.18,81.87-63.16,21.41-12.04,43.58-23.2,67.38-30.23,3.11-.92,7.68-2.89,9.62.8,1.64,3.11-2.48,5.43-4.66,7.5-17.62,16.78-34.24,34.5-50.57,52.54-27.2,30.05-52.43,61.54-72.83,96.66-19.33,33.28-36.29,67.94-58.02,99.82-.93,1.36-1.3,3.4-4.46,3.14Z"/>
      <path class="cls-1" d="M1298.35,1009.37c-3.97-.03-6-1.6-8.18-3.69-14.78-14.14-30.26-27.49-46.72-39.62-12.54-9.24-13.22-12.96-2.39-23.5,17.36-16.91,34.22-34.29,50.41-52.33,4-4.45,8.29-4.9,12.85-.55,19.89,18.97,37.77,39.99,58.85,57.78,3.38,2.85,3.99,6.77.32,10.17-19.37,17.95-40.54,33.71-61.11,50.2-1.28,1.03-3.21,1.26-4.02,1.55Z"/>
      <path class="cls-1" d="M912.35,822.22c5.54-14.42,18.51-17.16,28.42-22.74,22.16-12.48,45.71-20.63,72.1-19.85,30.79.91,53.65,15.24,72.17,38.17,9.8,12.13,17.08,25.86,22.54,40.51.99,2.67,2.39,5.68.5,8.1-2.66,3.43-4.95-.54-7.36-1.21-16.34-4.51-30.09-14.68-45.98-20.61-38.8-14.48-78.33-23.15-119.81-22.39-7.03.13-14.07.02-22.59.02Z"/>
      <path class="cls-1" d="M1478.06,869.38c2.95-17.54,9.58-29.96,17.15-40.87,10.93-15.77,23.57-30.85,41.61-39.59,20.48-9.93,41.9-11.27,63.98-6.76,26.92,5.49,64.55,24.86,79.81,42.39-72.58-7.77-138.12,11.29-202.54,44.85Z"/>
    </g>
  </g>
</svg>